<svg width="200" height="79" viewBox="0 0 200 79" fill="none" xmlns="http://www.w3.org/2000/svg">
<path d="M87.8506 21.6619H95.3272V51.5405H102.804V14.1923H95.3272C91.2151 14.1923 87.8506 17.5536 87.8506 21.6619Z" fill="#0A1728"/>
<path d="M110.28 51.5405H117.757V36.6012C117.757 32.4929 114.393 29.1316 110.28 29.1316V51.5405Z" fill="#0A1728"/>
<path d="M125.234 29.1316V51.5405H132.71V36.6012H140.187V44.0709C140.187 48.1792 143.552 51.5405 147.664 51.5405V36.6012C147.664 32.4929 144.299 29.1316 140.187 29.1316H125.234Z" fill="#0A1728"/>
<path d="M192.523 29.1316H185.047V21.6619C185.047 17.5536 181.682 14.1923 177.57 14.1923V44.0709H162.617V36.6012H170.094V29.1316H162.617C158.505 29.1316 155.14 32.4929 155.14 36.6012V44.0709C155.14 48.1792 158.505 51.5405 162.617 51.5405H185.047V36.6012H192.523V44.0709C192.523 48.1792 195.888 51.5405 200 51.5405V36.6012C200 32.4929 196.636 29.1316 192.523 29.1316Z" fill="#0A1728"/>
<path d="M110.28 21.6619H117.757C117.757 17.5536 114.393 14.1923 110.28 14.1923V21.6619Z" fill="#0A1728"/>
<mask id="path-2-outside-1_1507_1416" maskUnits="userSpaceOnUse" x="93.959" y="57.8379" width="106" height="7" fill="black">
<rect fill="white" x="93.959" y="57.8379" width="106" height="7"/>
<path fill-rule="evenodd" clip-rule="evenodd" d="M99.1229 58.8379V63.712H98.4405L95.7597 60.3349V63.712H94.959V58.8379H95.6414L98.3221 62.2289V58.8379H99.1229ZM114.273 63.712H111.384V58.8379H114.204V59.6386H112.24V60.8502H113.995V61.6509H112.24V62.9112H114.273V63.712ZM126.534 59.6386H128.115V63.712H128.971V59.6386H130.552V58.8379H126.534V59.6386ZM148.78 58.8379H149.601L148.209 63.712H147.408L146.231 60.1887L145.075 63.712H144.268L142.812 58.8379H143.773L144.755 62.3124L145.841 58.8379H146.691L147.805 62.3194L148.78 58.8379ZM162.572 59.562C162.098 60.0448 161.861 60.6413 161.861 61.3515C161.861 62.0989 162.1 62.7047 162.579 63.1689C163.057 63.6331 163.662 63.8652 164.396 63.8652C165.125 63.8652 165.73 63.6284 166.213 63.155C166.696 62.6815 166.937 62.0803 166.937 61.3515C166.937 60.6088 166.696 60.003 166.213 59.5342C165.735 59.07 165.129 58.8379 164.396 58.8379C163.662 58.8379 163.054 59.0793 162.572 59.562ZM163.233 62.577C162.922 62.2521 162.767 61.8436 162.767 61.3515C162.767 60.8502 162.92 60.4394 163.226 60.1191C163.537 59.7988 163.927 59.6386 164.396 59.6386C164.855 59.6386 165.243 59.7988 165.559 60.1191C165.874 60.444 166.032 60.8548 166.032 61.3515C166.032 61.8436 165.884 62.2521 165.587 62.577C165.294 62.902 164.897 63.0644 164.396 63.0644C163.932 63.0644 163.544 62.902 163.233 62.577ZM180.055 61.9016V63.7259H179.198V58.8518C179.44 58.8518 179.702 58.8495 179.985 58.8449C180.268 58.8402 180.5 58.8379 180.681 58.8379C181.86 58.8379 182.45 59.3392 182.45 60.3419C182.45 60.7133 182.355 61.0196 182.164 61.261C181.974 61.4931 181.756 61.6509 181.51 61.7345L183.035 63.7259H181.997L180.654 61.9016H180.055ZM180.64 59.6386C180.616 59.6386 180.579 59.641 180.528 59.6456C180.477 59.6456 180.405 59.6479 180.312 59.6526H180.055V61.1009H180.612C180.886 61.1009 181.108 61.0336 181.28 60.8989C181.457 60.7643 181.545 60.581 181.545 60.3489C181.545 59.8754 181.243 59.6386 180.64 59.6386ZM195.295 63.712H196.151V61.1983L198.143 63.712H199.229L197.098 61.1078L199.104 58.8379H198.073L196.151 61.1496V58.8379H195.295V63.712Z"/>
</mask>
<path fill-rule="evenodd" clip-rule="evenodd" d="M99.1229 58.8379V63.712H98.4405L95.7597 60.3349V63.712H94.959V58.8379H95.6414L98.3221 62.2289V58.8379H99.1229ZM114.273 63.712H111.384V58.8379H114.204V59.6386H112.24V60.8502H113.995V61.6509H112.24V62.9112H114.273V63.712ZM126.534 59.6386H128.115V63.712H128.971V59.6386H130.552V58.8379H126.534V59.6386ZM148.78 58.8379H149.601L148.209 63.712H147.408L146.231 60.1887L145.075 63.712H144.268L142.812 58.8379H143.773L144.755 62.3124L145.841 58.8379H146.691L147.805 62.3194L148.78 58.8379ZM162.572 59.562C162.098 60.0448 161.861 60.6413 161.861 61.3515C161.861 62.0989 162.1 62.7047 162.579 63.1689C163.057 63.6331 163.662 63.8652 164.396 63.8652C165.125 63.8652 165.73 63.6284 166.213 63.155C166.696 62.6815 166.937 62.0803 166.937 61.3515C166.937 60.6088 166.696 60.003 166.213 59.5342C165.735 59.07 165.129 58.8379 164.396 58.8379C163.662 58.8379 163.054 59.0793 162.572 59.562ZM163.233 62.577C162.922 62.2521 162.767 61.8436 162.767 61.3515C162.767 60.8502 162.92 60.4394 163.226 60.1191C163.537 59.7988 163.927 59.6386 164.396 59.6386C164.855 59.6386 165.243 59.7988 165.559 60.1191C165.874 60.444 166.032 60.8548 166.032 61.3515C166.032 61.8436 165.884 62.2521 165.587 62.577C165.294 62.902 164.897 63.0644 164.396 63.0644C163.932 63.0644 163.544 62.902 163.233 62.577ZM180.055 61.9016V63.7259H179.198V58.8518C179.44 58.8518 179.702 58.8495 179.985 58.8449C180.268 58.8402 180.5 58.8379 180.681 58.8379C181.86 58.8379 182.45 59.3392 182.45 60.3419C182.45 60.7133 182.355 61.0196 182.164 61.261C181.974 61.4931 181.756 61.6509 181.51 61.7345L183.035 63.7259H181.997L180.654 61.9016H180.055ZM180.64 59.6386C180.616 59.6386 180.579 59.641 180.528 59.6456C180.477 59.6456 180.405 59.6479 180.312 59.6526H180.055V61.1009H180.612C180.886 61.1009 181.108 61.0336 181.28 60.8989C181.457 60.7643 181.545 60.581 181.545 60.3489C181.545 59.8754 181.243 59.6386 180.64 59.6386ZM195.295 63.712H196.151V61.1983L198.143 63.712H199.229L197.098 61.1078L199.104 58.8379H198.073L196.151 61.1496V58.8379H195.295V63.712Z" fill="#2F7AEA"/>
<path d="M99.1229 63.712V63.872H99.2829V63.712H99.1229ZM99.1229 58.8379H99.2829V58.6779H99.1229V58.8379ZM98.4405 63.712L98.3152 63.8115L98.3632 63.872H98.4405V63.712ZM95.7597 60.3349L95.885 60.2355L95.5997 59.876V60.3349H95.7597ZM95.7597 63.712V63.872H95.9197V63.712H95.7597ZM94.959 63.712H94.799V63.872H94.959V63.712ZM94.959 58.8379V58.6779H94.799V58.8379H94.959ZM95.6414 58.8379L95.7669 58.7387L95.7188 58.6779H95.6414V58.8379ZM98.3221 62.2289L98.1966 62.3281L98.4821 62.6893V62.2289H98.3221ZM98.3221 58.8379V58.6779H98.1621V58.8379H98.3221ZM111.384 63.712H111.224V63.872H111.384V63.712ZM114.273 63.712V63.872H114.433V63.712H114.273ZM111.384 58.8379V58.6779H111.224V58.8379H111.384ZM114.204 58.8379H114.364V58.6779H114.204V58.8379ZM114.204 59.6386V59.7986H114.364V59.6386H114.204ZM112.24 59.6386V59.4786H112.08V59.6386H112.24ZM112.24 60.8502H112.08V61.0102H112.24V60.8502ZM113.995 60.8502H114.155V60.6902H113.995V60.8502ZM113.995 61.6509V61.8109H114.155V61.6509H113.995ZM112.24 61.6509V61.4909H112.08V61.6509H112.24ZM112.24 62.9112H112.08V63.0712H112.24V62.9112ZM114.273 62.9112H114.433V62.7512H114.273V62.9112ZM128.115 59.6386H128.275V59.4786H128.115V59.6386ZM126.534 59.6386H126.374V59.7986H126.534V59.6386ZM128.115 63.712H127.955V63.872H128.115V63.712ZM128.971 63.712V63.872H129.131V63.712H128.971ZM128.971 59.6386V59.4786H128.811V59.6386H128.971ZM130.552 59.6386V59.7986H130.712V59.6386H130.552ZM130.552 58.8379H130.712V58.6779H130.552V58.8379ZM126.534 58.8379V58.6779H126.374V58.8379H126.534ZM149.601 58.8379L149.755 58.8818L149.814 58.6779H149.601V58.8379ZM148.78 58.8379V58.6779H148.658L148.626 58.7947L148.78 58.8379ZM148.209 63.712V63.872H148.33L148.363 63.7559L148.209 63.712ZM147.408 63.712L147.256 63.7627L147.293 63.872H147.408V63.712ZM146.231 60.1887L146.383 60.138L146.23 59.6796L146.079 60.1388L146.231 60.1887ZM145.075 63.712V63.872H145.191L145.228 63.7619L145.075 63.712ZM144.268 63.712L144.114 63.7578L144.149 63.872H144.268V63.712ZM142.812 58.8379V58.6779H142.598L142.659 58.8837L142.812 58.8379ZM143.773 58.8379L143.927 58.7944L143.894 58.6779H143.773V58.8379ZM144.755 62.3124L144.601 62.3559L144.747 62.8734L144.908 62.3602L144.755 62.3124ZM145.841 58.8379V58.6779H145.724L145.689 58.7901L145.841 58.8379ZM146.691 58.8379L146.843 58.7891L146.808 58.6779H146.691V58.8379ZM147.805 62.3194L147.653 62.3682L147.815 62.8763L147.959 62.3625L147.805 62.3194ZM162.572 59.562L162.458 59.4489L162.457 59.45L162.572 59.562ZM162.579 63.1689L162.69 63.0541L162.69 63.0541L162.579 63.1689ZM166.213 63.155L166.325 63.2692L166.325 63.2692L166.213 63.155ZM166.213 59.5342L166.325 59.4194L166.325 59.4194L166.213 59.5342ZM163.233 62.577L163.349 62.4664L163.349 62.4664L163.233 62.577ZM163.226 60.1191L163.111 60.0076L163.11 60.0085L163.226 60.1191ZM165.559 60.1191L165.673 60.0076L165.673 60.0068L165.559 60.1191ZM165.587 62.577L165.468 62.4691L165.468 62.47L165.587 62.577ZM180.055 63.7259V63.8859H180.215V63.7259H180.055ZM180.055 61.9016V61.7416H179.895V61.9016H180.055ZM179.198 63.7259H179.038V63.8859H179.198V63.7259ZM179.198 58.8518V58.6918H179.038V58.8518H179.198ZM179.985 58.8449L179.988 59.0048L179.988 59.0048L179.985 58.8449ZM182.164 61.261L182.288 61.3625L182.29 61.3601L182.164 61.261ZM181.51 61.7345L181.459 61.583L181.247 61.6547L181.383 61.8318L181.51 61.7345ZM183.035 63.7259V63.8859H183.359L183.162 63.6286L183.035 63.7259ZM181.997 63.7259L181.869 63.8208L181.917 63.8859H181.997V63.7259ZM180.654 61.9016L180.782 61.8067L180.734 61.7416H180.654V61.9016ZM180.528 59.6456V59.8056H180.535L180.543 59.8049L180.528 59.6456ZM180.312 59.6526V59.8128L180.32 59.8124L180.312 59.6526ZM180.055 59.6526V59.4926H179.895V59.6526H180.055ZM180.055 61.1009H179.895V61.2609H180.055V61.1009ZM181.28 60.8989L181.183 60.7717L181.181 60.773L181.28 60.8989ZM196.151 63.712V63.872H196.311V63.712H196.151ZM195.295 63.712H195.135V63.872H195.295V63.712ZM196.151 61.1983L196.277 61.099L195.991 60.7387V61.1983H196.151ZM198.143 63.712L198.017 63.8114L198.065 63.872H198.143V63.712ZM199.229 63.712V63.872H199.567L199.353 63.6107L199.229 63.712ZM197.098 61.1078L196.978 61.0019L196.888 61.1039L196.975 61.2091L197.098 61.1078ZM199.104 58.8379L199.224 58.9438L199.459 58.6779H199.104V58.8379ZM198.073 58.8379V58.6779H197.998L197.95 58.7356L198.073 58.8379ZM196.151 61.1496H195.991V61.5924L196.274 61.2519L196.151 61.1496ZM196.151 58.8379H196.311V58.6779H196.151V58.8379ZM195.295 58.8379V58.6779H195.135V58.8379H195.295ZM99.2829 63.712V58.8379H98.9629V63.712H99.2829ZM98.4405 63.872H99.1229V63.552H98.4405V63.872ZM95.6344 60.4344L98.3152 63.8115L98.5658 63.6125L95.885 60.2355L95.6344 60.4344ZM95.9197 63.712V60.3349H95.5997V63.712H95.9197ZM94.959 63.872H95.7597V63.552H94.959V63.872ZM94.799 58.8379V63.712H95.119V58.8379H94.799ZM95.6414 58.6779H94.959V58.9979H95.6414V58.6779ZM98.4476 62.1296L95.7669 58.7387L95.5158 58.9371L98.1966 62.3281L98.4476 62.1296ZM98.1621 58.8379V62.2289H98.4821V58.8379H98.1621ZM99.1229 58.6779H98.3221V58.9979H99.1229V58.6779ZM111.384 63.872H114.273V63.552H111.384V63.872ZM111.224 58.8379V63.712H111.544V58.8379H111.224ZM114.204 58.6779H111.384V58.9979H114.204V58.6779ZM114.364 59.6386V58.8379H114.044V59.6386H114.364ZM112.24 59.7986H114.204V59.4786H112.24V59.7986ZM112.4 60.8502V59.6386H112.08V60.8502H112.4ZM113.995 60.6902H112.24V61.0102H113.995V60.6902ZM114.155 61.6509V60.8502H113.835V61.6509H114.155ZM112.24 61.8109H113.995V61.4909H112.24V61.8109ZM112.4 62.9112V61.6509H112.08V62.9112H112.4ZM114.273 62.7512H112.24V63.0712H114.273V62.7512ZM114.433 63.712V62.9112H114.113V63.712H114.433ZM128.115 59.4786H126.534V59.7986H128.115V59.4786ZM128.275 63.712V59.6386H127.955V63.712H128.275ZM128.971 63.552H128.115V63.872H128.971V63.552ZM128.811 59.6386V63.712H129.131V59.6386H128.811ZM130.552 59.4786H128.971V59.7986H130.552V59.4786ZM130.392 58.8379V59.6386H130.712V58.8379H130.392ZM126.534 58.9979H130.552V58.6779H126.534V58.9979ZM126.694 59.6386V58.8379H126.374V59.6386H126.694ZM149.601 58.6779H148.78V58.9979H149.601V58.6779ZM148.363 63.7559L149.755 58.8818L149.448 58.7939L148.055 63.668L148.363 63.7559ZM147.408 63.872H148.209V63.552H147.408V63.872ZM146.08 60.2394L147.256 63.7627L147.56 63.6613L146.383 60.138L146.08 60.2394ZM145.228 63.7619L146.383 60.2386L146.079 60.1388L144.923 63.6621L145.228 63.7619ZM144.268 63.872H145.075V63.552H144.268V63.872ZM142.659 58.8837L144.114 63.7578L144.421 63.6662L142.966 58.7921L142.659 58.8837ZM143.773 58.6779H142.812V58.9979H143.773V58.6779ZM144.909 62.2689L143.927 58.7944L143.619 58.8814L144.601 62.3559L144.909 62.2689ZM145.689 58.7901L144.602 62.2647L144.908 62.3602L145.994 58.8856L145.689 58.7901ZM146.691 58.6779H145.841V58.9979H146.691V58.6779ZM147.957 62.2706L146.843 58.7891L146.539 58.8867L147.653 62.3682L147.957 62.2706ZM148.626 58.7947L147.651 62.2763L147.959 62.3625L148.934 58.881L148.626 58.7947ZM162.021 61.3515C162.021 60.6809 162.243 60.1253 162.686 59.6741L162.457 59.45C161.953 59.9643 161.701 60.6018 161.701 61.3515H162.021ZM162.69 63.0541C162.247 62.6238 162.021 62.0614 162.021 61.3515H161.701C161.701 62.1364 161.954 62.7855 162.467 63.2837L162.69 63.0541ZM164.396 63.7052C163.699 63.7052 163.135 63.4863 162.69 63.0541L162.467 63.2837C162.978 63.7799 163.625 64.0252 164.396 64.0252V63.7052ZM166.101 63.0407C165.651 63.4824 165.086 63.7052 164.396 63.7052V64.0252C165.163 64.0252 165.81 63.7744 166.325 63.2692L166.101 63.0407ZM166.777 61.3515C166.777 62.0411 166.551 62.5998 166.101 63.0407L166.325 63.2692C166.841 62.7631 167.097 62.1196 167.097 61.3515H166.777ZM166.102 59.649C166.55 60.0844 166.777 60.6471 166.777 61.3515H167.097C167.097 60.5705 166.842 59.9217 166.325 59.4194L166.102 59.649ZM164.396 58.9979C165.092 58.9979 165.657 59.2168 166.102 59.649L166.325 59.4194C165.814 58.9232 165.166 58.6779 164.396 58.6779V58.9979ZM162.685 59.6752C163.135 59.2248 163.701 58.9979 164.396 58.9979V58.6779C163.623 58.6779 162.974 58.9338 162.458 59.4489L162.685 59.6752ZM162.607 61.3515C162.607 61.8806 162.775 62.33 163.117 62.6877L163.349 62.4664C163.069 62.1742 162.927 61.8066 162.927 61.3515H162.607ZM163.11 60.0085C162.772 60.3625 162.607 60.8148 162.607 61.3515H162.927C162.927 60.8856 163.068 60.5162 163.342 60.2297L163.11 60.0085ZM164.396 59.4786C163.886 59.4786 163.454 59.6546 163.111 60.0076L163.341 60.2305C163.62 59.943 163.968 59.7986 164.396 59.7986V59.4786ZM165.673 60.0068C165.326 59.6552 164.897 59.4786 164.396 59.4786V59.7986C164.814 59.7986 165.16 59.9423 165.445 60.2314L165.673 60.0068ZM166.192 61.3515C166.192 60.8176 166.021 60.3654 165.673 60.0076L165.444 60.2306C165.728 60.5226 165.872 60.8921 165.872 61.3515H166.192ZM165.705 62.685C166.032 62.327 166.192 61.8785 166.192 61.3515H165.872C165.872 61.8087 165.735 62.1772 165.468 62.4691L165.705 62.685ZM164.396 63.2244C164.935 63.2244 165.378 63.0478 165.705 62.6841L165.468 62.47C165.21 62.7561 164.859 62.9044 164.396 62.9044V63.2244ZM163.117 62.6877C163.46 63.0452 163.89 63.2244 164.396 63.2244V62.9044C163.974 62.9044 163.628 62.7587 163.349 62.4664L163.117 62.6877ZM180.215 63.7259V61.9016H179.895V63.7259H180.215ZM179.198 63.8859H180.055V63.5659H179.198V63.8859ZM179.038 58.8518V63.7259H179.358V58.8518H179.038ZM179.982 58.6849C179.7 58.6895 179.439 58.6918 179.198 58.6918V59.0118C179.441 59.0118 179.704 59.0095 179.988 59.0048L179.982 58.6849ZM180.681 58.6779C180.499 58.6779 180.266 58.6802 179.982 58.6849L179.988 59.0048C180.27 59.0002 180.502 58.9979 180.681 58.9979V58.6779ZM182.61 60.3419C182.61 59.8085 182.452 59.3815 182.111 59.092C181.776 58.8067 181.29 58.6779 180.681 58.6779V58.9979C181.252 58.9979 181.65 59.1198 181.904 59.3358C182.153 59.5476 182.29 59.8726 182.29 60.3419H182.61ZM182.29 61.3601C182.507 61.085 182.61 60.7415 182.61 60.3419H182.29C182.29 60.685 182.203 60.9543 182.039 61.162L182.29 61.3601ZM181.561 61.886C181.84 61.7914 182.082 61.614 182.288 61.3625L182.041 61.1596C181.866 61.3722 181.672 61.5105 181.459 61.583L181.561 61.886ZM183.162 63.6286L181.637 61.6372L181.383 61.8318L182.908 63.8232L183.162 63.6286ZM181.997 63.8859H183.035V63.5659H181.997V63.8859ZM180.525 61.9965L181.869 63.8208L182.126 63.631L180.782 61.8067L180.525 61.9965ZM180.055 62.0616H180.654V61.7416H180.055V62.0616ZM180.543 59.8049C180.593 59.8003 180.624 59.7986 180.64 59.7986V59.4786C180.609 59.4786 180.565 59.4816 180.514 59.4863L180.543 59.8049ZM180.32 59.8124C180.412 59.8078 180.481 59.8056 180.528 59.8056V59.4856C180.473 59.4856 180.398 59.4881 180.304 59.4928L180.32 59.8124ZM180.055 59.8126H180.312V59.4926H180.055V59.8126ZM180.215 61.1009V59.6526H179.895V61.1009H180.215ZM180.612 60.9409H180.055V61.2609H180.612V60.9409ZM181.181 60.773C181.044 60.8804 180.859 60.9409 180.612 60.9409V61.2609C180.912 61.2609 181.172 61.1867 181.379 61.0249L181.181 60.773ZM181.385 60.3489C181.385 60.5337 181.318 60.669 181.183 60.7717L181.377 61.0261C181.595 60.8597 181.705 60.6282 181.705 60.3489H181.385ZM180.64 59.7986C180.925 59.7986 181.109 59.8553 181.22 59.9421C181.323 60.023 181.385 60.1485 181.385 60.3489H181.705C181.705 60.0757 181.616 59.8461 181.417 59.6903C181.226 59.5403 180.958 59.4786 180.64 59.4786V59.7986ZM196.151 63.552H195.295V63.872H196.151V63.552ZM195.991 61.1983V63.712H196.311V61.1983H195.991ZM198.268 63.6126L196.277 61.099L196.026 61.2977L198.017 63.8114L198.268 63.6126ZM199.229 63.552H198.143V63.872H199.229V63.552ZM196.975 61.2091L199.105 63.8133L199.353 63.6107L197.222 61.0065L196.975 61.2091ZM198.984 58.732L196.978 61.0019L197.218 61.2138L199.224 58.9438L198.984 58.732ZM198.073 58.9979H199.104V58.6779H198.073V58.9979ZM196.274 61.2519L198.196 58.9402L197.95 58.7356L196.028 61.0473L196.274 61.2519ZM195.991 58.8379V61.1496H196.311V58.8379H195.991ZM195.295 58.9979H196.151V58.6779H195.295V58.9979ZM195.455 63.712V58.8379H195.135V63.712H195.455Z" fill="#2F7AEA" mask="url(#path-2-outside-1_1507_1416)"/>
<g opacity="0.3">
<mask id="path-4-outside-2_1507_1416" maskUnits="userSpaceOnUse" x="-0.160156" y="2.28918" width="78" height="74" fill="black">
<rect fill="white" x="-0.160156" y="2.28918" width="78" height="74"/>
<path d="M35.1013 17.4236C36.512 15.7692 35.96 13.3182 35.96 13.3182L31.8508 19.3844C31.7894 19.3844 33.3227 19.4457 35.1013 17.4236Z"/>
<path d="M21.3017 50.5733L21.7923 48.1223C21.7923 48.1223 19.7684 51.6762 19.5844 52.1664C19.4004 52.7179 19.707 53.6983 20.5043 53.637C21.3017 53.5757 22.283 52.4115 22.283 51.5536C22.283 50.4507 21.3017 50.5733 21.3017 50.5733Z"/>
<path d="M57.7327 11.6026C57.7327 11.6026 60.7993 11.7252 63.9886 12.0928C56.8127 6.45555 50.0049 4.80113 44.4851 4.80113C36.8799 4.80113 31.7281 7.92613 31.4214 8.10996L33.8133 4.31094C33.8133 4.31094 24.2456 3.39182 20.8723 13.5021C20.0137 11.3575 19.2164 8.23251 19.2164 8.23251C19.2164 8.23251 14.2485 12.583 16.5791 19.8134C10.8752 17.7301 2.71811 14.8502 2.41146 14.7889C1.98213 14.7276 1.85947 14.9114 1.85947 14.9114C1.85947 14.9114 1.73681 15.0953 2.1048 15.4016C2.77945 15.9531 15.6591 25.4506 18.4804 27.2889C17.8671 29.4948 17.8671 30.5364 18.4804 31.5781C19.339 32.9874 19.4004 33.7227 19.2777 34.7644C19.155 35.806 18.0511 44.8134 17.8057 45.9163C17.5604 47.0193 14.9845 50.9408 15.1071 52.1051C15.2298 53.2693 16.8244 58.2325 18.2351 58.784C19.2777 59.1516 21.8536 59.9482 23.5709 59.9482C24.1842 59.9482 24.7362 59.8256 24.9816 59.5805C26.0242 58.6614 26.3309 58.4776 27.0668 58.4776C27.1282 58.4776 27.1895 58.4776 27.2508 58.4776C27.5575 58.4776 27.9255 58.5389 28.3548 58.5389C29.3361 58.5389 30.6241 58.3551 31.5441 57.4972C32.8934 56.1492 35.224 54.3109 35.9599 53.4531C36.8799 52.2889 37.3706 50.6957 37.1252 49.1026C36.9413 47.632 37.7386 46.3453 38.6585 45.0585C39.8238 43.5266 41.9705 40.7693 41.9705 40.7693C46.2023 43.9555 48.8396 48.7962 48.8396 54.1884C48.8396 63.7472 40.4985 71.4678 30.1948 71.4678C28.6001 71.4678 27.0668 71.284 25.5335 70.9163C30.2561 72.5707 34.2427 73.1222 37.4932 73.1222C44.4237 73.1222 48.1036 70.61 48.1036 70.61C48.1036 70.61 46.8157 72.2644 44.7304 74.1639C44.7917 74.1639 44.7917 74.1639 44.7917 74.1639C56.2608 72.5707 61.842 63.1345 61.842 63.1345C61.842 63.1345 61.4126 66.1982 60.8606 68.2815C76.1323 56.8232 73.5563 42.485 73.495 41.9948C73.6177 42.1786 75.151 44.0168 75.9483 44.9972C78.4015 19.7521 57.7327 11.6026 57.7327 11.6026ZM34.2427 51.9212C33.9973 52.2276 32.9547 53.1467 32.2187 53.8207C31.4827 54.4948 30.6854 55.1688 30.0721 55.7815C29.8268 56.0266 29.3361 56.1492 28.6001 56.1492C28.3548 56.1492 28.1095 56.1492 27.9255 56.1492C27.8028 56.1492 27.6802 56.1492 27.5575 56.1492C27.4348 56.1492 27.3735 56.1492 27.3122 56.1492C27.1282 56.1492 26.9442 56.1492 26.7602 56.1492C27.6802 54.9237 30.3788 52.1051 31.2987 51.4923C32.4027 50.757 32.9547 50.0217 32.28 48.735C31.6054 47.4482 29.8268 47.7546 29.8268 47.7546C29.8268 47.7546 30.8694 47.3256 31.7894 47.3256C30.6241 47.0193 29.1521 47.3256 28.4775 47.9997C27.7415 48.6737 27.8641 51.0634 27.5575 52.5953C27.2508 54.1884 26.2082 54.985 24.6136 56.4555C23.7549 57.2521 23.1416 57.4972 22.6509 57.4972C21.6083 57.3134 20.3817 57.007 19.523 56.7006C18.9097 55.9041 17.9897 53.2693 17.7444 52.1663C17.9284 51.5536 18.6644 50.2668 19.0324 49.5315C19.7684 48.1222 20.1977 47.3256 20.3203 46.5903C20.5657 45.5487 21.363 39.1149 21.6696 36.4188C22.467 37.4605 23.5709 39.1761 23.3256 40.2791C25.1042 37.7668 23.8162 35.3158 23.2029 34.3354C22.6509 33.3551 21.915 31.3943 22.5283 29.3109C23.1416 27.2276 25.3495 21.4678 25.3495 21.4678C25.3495 21.4678 26.0855 22.7546 27.1282 22.5095C28.1708 22.2644 36.5733 9.64182 36.5733 9.64182C36.5733 9.64182 38.8425 14.6051 36.4506 18.2203C33.9973 21.8354 31.6054 22.5095 31.6054 22.5095C31.6054 22.5095 34.9786 23.1222 38.1066 20.8551C39.3945 23.8575 40.6212 26.9825 40.6825 27.4114C40.4985 27.8404 38.0452 33.7227 37.7999 34.0904C37.6772 34.2129 36.8186 34.458 36.2053 34.5805C35.1626 34.8869 34.5493 35.0707 34.304 35.2546C33.8747 35.6222 31.912 41.0144 30.9921 43.6492C29.8881 43.9555 28.7841 44.5683 27.9868 45.7938C28.4161 45.4874 29.7654 45.3036 30.7467 45.181C31.6054 45.1198 34.2427 46.5291 34.9173 49.1639C34.9173 49.2252 34.9173 49.2252 34.9173 49.2864C35.04 50.2668 34.7333 51.1859 34.2427 51.9212ZM28.4775 52.6565C29.0295 51.86 28.9681 50.5119 29.0295 50.083C29.0908 49.6541 29.2134 48.8575 29.7041 48.735C30.1948 48.6124 31.3601 48.7962 31.3601 49.6541C31.3601 50.4506 30.5014 50.6345 29.8881 51.1859C29.4588 51.6149 28.6001 52.534 28.4775 52.6565ZM52.9488 40.9531C53.5622 37.8281 53.6235 35.132 53.4395 32.9261C55.8314 36.1124 57.3034 39.9727 57.7327 43.9555C57.7941 44.4457 58.2847 44.9359 58.7754 45.4261C59.2047 45.7938 59.6953 46.284 59.6953 46.5903C59.6953 47.9997 59.5727 49.409 59.3273 50.8183C59.266 51.0021 58.714 51.3085 58.2847 51.5536C57.6714 51.86 57.1194 52.1663 56.9967 52.6565C55.6474 57.3747 52.7648 61.5413 48.9009 64.4825C54.6048 58.5389 57.3647 48.735 52.9488 40.9531ZM49.0849 65.034C53.0715 61.9703 56.1381 57.681 57.4874 52.8403C57.5487 52.6565 58.1007 52.3502 58.4687 52.1051C59.082 51.7987 59.6953 51.431 59.818 50.9408C60.0633 49.5315 60.186 48.0609 60.186 46.5903C60.186 46.0389 59.634 45.4874 59.082 44.9359C58.7754 44.5683 58.2847 44.1394 58.2847 43.833C57.7941 39.36 56.0154 35.132 53.2555 31.6394C52.0289 24.2864 47.1223 22.0193 46.9997 21.958C47.1223 22.1418 50.3116 26.7374 48.1036 32.1296C45.8344 37.583 40.0078 36.7252 39.5172 36.7864C39.0265 36.7864 37.1252 39.2374 34.7333 43.7717C34.4266 43.6492 33.1387 43.3428 31.6667 43.5879C32.7707 40.5242 34.4266 36.1737 34.7333 35.806C34.856 35.6835 35.7759 35.4384 36.3893 35.2546C37.5546 34.9482 38.1066 34.7644 38.2906 34.5193C38.4132 34.3354 39.0265 32.9261 39.6398 31.4555C40.1918 31.4555 41.6025 31.333 41.7251 31.2717C41.8478 31.1492 43.0131 28.1467 43.0131 27.7791C43.0131 27.4727 40.6212 21.5291 39.7012 19.2619C40.1305 18.7717 40.5598 18.159 40.9891 17.485C53.5622 18.833 63.3753 29.4948 63.3753 42.4237C63.3753 52.3502 57.5487 60.9899 49.0849 65.034Z"/>
<path d="M32.7707 31.9457C33.936 30.5977 33.3227 28.0854 31.1761 27.6565C31.7281 26.3697 32.5254 23.7962 32.5254 23.7962C32.5254 23.7962 26.2695 33.6001 25.7175 33.784C25.1656 33.9678 24.6136 31.8232 24.6136 31.8232C23.4483 36.2962 26.5762 36.909 26.9442 35.4996C28.6615 35.0707 31.6054 33.2325 32.7707 31.9457Z"/>
</mask>
<path d="M35.1013 17.4236C36.512 15.7692 35.96 13.3182 35.96 13.3182L31.8508 19.3844C31.7894 19.3844 33.3227 19.4457 35.1013 17.4236Z" fill="#0A1728"/>
<path d="M21.3017 50.5733L21.7923 48.1223C21.7923 48.1223 19.7684 51.6762 19.5844 52.1664C19.4004 52.7179 19.707 53.6983 20.5043 53.637C21.3017 53.5757 22.283 52.4115 22.283 51.5536C22.283 50.4507 21.3017 50.5733 21.3017 50.5733Z" fill="#0A1728"/>
<path d="M57.7327 11.6026C57.7327 11.6026 60.7993 11.7252 63.9886 12.0928C56.8127 6.45555 50.0049 4.80113 44.4851 4.80113C36.8799 4.80113 31.7281 7.92613 31.4214 8.10996L33.8133 4.31094C33.8133 4.31094 24.2456 3.39182 20.8723 13.5021C20.0137 11.3575 19.2164 8.23251 19.2164 8.23251C19.2164 8.23251 14.2485 12.583 16.5791 19.8134C10.8752 17.7301 2.71811 14.8502 2.41146 14.7889C1.98213 14.7276 1.85947 14.9114 1.85947 14.9114C1.85947 14.9114 1.73681 15.0953 2.1048 15.4016C2.77945 15.9531 15.6591 25.4506 18.4804 27.2889C17.8671 29.4948 17.8671 30.5364 18.4804 31.5781C19.339 32.9874 19.4004 33.7227 19.2777 34.7644C19.155 35.806 18.0511 44.8134 17.8057 45.9163C17.5604 47.0193 14.9845 50.9408 15.1071 52.1051C15.2298 53.2693 16.8244 58.2325 18.2351 58.784C19.2777 59.1516 21.8536 59.9482 23.5709 59.9482C24.1842 59.9482 24.7362 59.8256 24.9816 59.5805C26.0242 58.6614 26.3309 58.4776 27.0668 58.4776C27.1282 58.4776 27.1895 58.4776 27.2508 58.4776C27.5575 58.4776 27.9255 58.5389 28.3548 58.5389C29.3361 58.5389 30.6241 58.3551 31.5441 57.4972C32.8934 56.1492 35.224 54.3109 35.9599 53.4531C36.8799 52.2889 37.3706 50.6957 37.1252 49.1026C36.9413 47.632 37.7386 46.3453 38.6585 45.0585C39.8238 43.5266 41.9705 40.7693 41.9705 40.7693C46.2023 43.9555 48.8396 48.7962 48.8396 54.1884C48.8396 63.7472 40.4985 71.4678 30.1948 71.4678C28.6001 71.4678 27.0668 71.284 25.5335 70.9163C30.2561 72.5707 34.2427 73.1222 37.4932 73.1222C44.4237 73.1222 48.1036 70.61 48.1036 70.61C48.1036 70.61 46.8157 72.2644 44.7304 74.1639C44.7917 74.1639 44.7917 74.1639 44.7917 74.1639C56.2608 72.5707 61.842 63.1345 61.842 63.1345C61.842 63.1345 61.4126 66.1982 60.8606 68.2815C76.1323 56.8232 73.5563 42.485 73.495 41.9948C73.6177 42.1786 75.151 44.0168 75.9483 44.9972C78.4015 19.7521 57.7327 11.6026 57.7327 11.6026ZM34.2427 51.9212C33.9973 52.2276 32.9547 53.1467 32.2187 53.8207C31.4827 54.4948 30.6854 55.1688 30.0721 55.7815C29.8268 56.0266 29.3361 56.1492 28.6001 56.1492C28.3548 56.1492 28.1095 56.1492 27.9255 56.1492C27.8028 56.1492 27.6802 56.1492 27.5575 56.1492C27.4348 56.1492 27.3735 56.1492 27.3122 56.1492C27.1282 56.1492 26.9442 56.1492 26.7602 56.1492C27.6802 54.9237 30.3788 52.1051 31.2987 51.4923C32.4027 50.757 32.9547 50.0217 32.28 48.735C31.6054 47.4482 29.8268 47.7546 29.8268 47.7546C29.8268 47.7546 30.8694 47.3256 31.7894 47.3256C30.6241 47.0193 29.1521 47.3256 28.4775 47.9997C27.7415 48.6737 27.8641 51.0634 27.5575 52.5953C27.2508 54.1884 26.2082 54.985 24.6136 56.4555C23.7549 57.2521 23.1416 57.4972 22.6509 57.4972C21.6083 57.3134 20.3817 57.007 19.523 56.7006C18.9097 55.9041 17.9897 53.2693 17.7444 52.1663C17.9284 51.5536 18.6644 50.2668 19.0324 49.5315C19.7684 48.1222 20.1977 47.3256 20.3203 46.5903C20.5657 45.5487 21.363 39.1149 21.6696 36.4188C22.467 37.4605 23.5709 39.1761 23.3256 40.2791C25.1042 37.7668 23.8162 35.3158 23.2029 34.3354C22.6509 33.3551 21.915 31.3943 22.5283 29.3109C23.1416 27.2276 25.3495 21.4678 25.3495 21.4678C25.3495 21.4678 26.0855 22.7546 27.1282 22.5095C28.1708 22.2644 36.5733 9.64182 36.5733 9.64182C36.5733 9.64182 38.8425 14.6051 36.4506 18.2203C33.9973 21.8354 31.6054 22.5095 31.6054 22.5095C31.6054 22.5095 34.9786 23.1222 38.1066 20.8551C39.3945 23.8575 40.6212 26.9825 40.6825 27.4114C40.4985 27.8404 38.0452 33.7227 37.7999 34.0904C37.6772 34.2129 36.8186 34.458 36.2053 34.5805C35.1626 34.8869 34.5493 35.0707 34.304 35.2546C33.8747 35.6222 31.912 41.0144 30.9921 43.6492C29.8881 43.9555 28.7841 44.5683 27.9868 45.7938C28.4161 45.4874 29.7654 45.3036 30.7467 45.181C31.6054 45.1198 34.2427 46.5291 34.9173 49.1639C34.9173 49.2252 34.9173 49.2252 34.9173 49.2864C35.04 50.2668 34.7333 51.1859 34.2427 51.9212ZM28.4775 52.6565C29.0295 51.86 28.9681 50.5119 29.0295 50.083C29.0908 49.6541 29.2134 48.8575 29.7041 48.735C30.1948 48.6124 31.3601 48.7962 31.3601 49.6541C31.3601 50.4506 30.5014 50.6345 29.8881 51.1859C29.4588 51.6149 28.6001 52.534 28.4775 52.6565ZM52.9488 40.9531C53.5622 37.8281 53.6235 35.132 53.4395 32.9261C55.8314 36.1124 57.3034 39.9727 57.7327 43.9555C57.7941 44.4457 58.2847 44.9359 58.7754 45.4261C59.2047 45.7938 59.6953 46.284 59.6953 46.5903C59.6953 47.9997 59.5727 49.409 59.3273 50.8183C59.266 51.0021 58.714 51.3085 58.2847 51.5536C57.6714 51.86 57.1194 52.1663 56.9967 52.6565C55.6474 57.3747 52.7648 61.5413 48.9009 64.4825C54.6048 58.5389 57.3647 48.735 52.9488 40.9531ZM49.0849 65.034C53.0715 61.9703 56.1381 57.681 57.4874 52.8403C57.5487 52.6565 58.1007 52.3502 58.4687 52.1051C59.082 51.7987 59.6953 51.431 59.818 50.9408C60.0633 49.5315 60.186 48.0609 60.186 46.5903C60.186 46.0389 59.634 45.4874 59.082 44.9359C58.7754 44.5683 58.2847 44.1394 58.2847 43.833C57.7941 39.36 56.0154 35.132 53.2555 31.6394C52.0289 24.2864 47.1223 22.0193 46.9997 21.958C47.1223 22.1418 50.3116 26.7374 48.1036 32.1296C45.8344 37.583 40.0078 36.7252 39.5172 36.7864C39.0265 36.7864 37.1252 39.2374 34.7333 43.7717C34.4266 43.6492 33.1387 43.3428 31.6667 43.5879C32.7707 40.5242 34.4266 36.1737 34.7333 35.806C34.856 35.6835 35.7759 35.4384 36.3893 35.2546C37.5546 34.9482 38.1066 34.7644 38.2906 34.5193C38.4132 34.3354 39.0265 32.9261 39.6398 31.4555C40.1918 31.4555 41.6025 31.333 41.7251 31.2717C41.8478 31.1492 43.0131 28.1467 43.0131 27.7791C43.0131 27.4727 40.6212 21.5291 39.7012 19.2619C40.1305 18.7717 40.5598 18.159 40.9891 17.485C53.5622 18.833 63.3753 29.4948 63.3753 42.4237C63.3753 52.3502 57.5487 60.9899 49.0849 65.034Z" fill="#0A1728"/>
<path d="M32.7707 31.9457C33.936 30.5977 33.3227 28.0854 31.1761 27.6565C31.7281 26.3697 32.5254 23.7962 32.5254 23.7962C32.5254 23.7962 26.2695 33.6001 25.7175 33.784C25.1656 33.9678 24.6136 31.8232 24.6136 31.8232C23.4483 36.2962 26.5762 36.909 26.9442 35.4996C28.6615 35.0707 31.6054 33.2325 32.7707 31.9457Z" fill="#0A1728"/>
<path d="M35.1013 17.4236C36.512 15.7692 35.96 13.3182 35.96 13.3182L31.8508 19.3844C31.7894 19.3844 33.3227 19.4457 35.1013 17.4236Z" stroke="#9EC5FF" stroke-width="3.2795" stroke-linejoin="round" mask="url(#path-4-outside-2_1507_1416)"/>
<path d="M21.3017 50.5733L21.7923 48.1223C21.7923 48.1223 19.7684 51.6762 19.5844 52.1664C19.4004 52.7179 19.707 53.6983 20.5043 53.637C21.3017 53.5757 22.283 52.4115 22.283 51.5536C22.283 50.4507 21.3017 50.5733 21.3017 50.5733Z" stroke="#9EC5FF" stroke-width="3.2795" stroke-linejoin="round" mask="url(#path-4-outside-2_1507_1416)"/>
<path d="M57.7327 11.6026C57.7327 11.6026 60.7993 11.7252 63.9886 12.0928C56.8127 6.45555 50.0049 4.80113 44.4851 4.80113C36.8799 4.80113 31.7281 7.92613 31.4214 8.10996L33.8133 4.31094C33.8133 4.31094 24.2456 3.39182 20.8723 13.5021C20.0137 11.3575 19.2164 8.23251 19.2164 8.23251C19.2164 8.23251 14.2485 12.583 16.5791 19.8134C10.8752 17.7301 2.71811 14.8502 2.41146 14.7889C1.98213 14.7276 1.85947 14.9114 1.85947 14.9114C1.85947 14.9114 1.73681 15.0953 2.1048 15.4016C2.77945 15.9531 15.6591 25.4506 18.4804 27.2889C17.8671 29.4948 17.8671 30.5364 18.4804 31.5781C19.339 32.9874 19.4004 33.7227 19.2777 34.7644C19.155 35.806 18.0511 44.8134 17.8057 45.9163C17.5604 47.0193 14.9845 50.9408 15.1071 52.1051C15.2298 53.2693 16.8244 58.2325 18.2351 58.784C19.2777 59.1516 21.8536 59.9482 23.5709 59.9482C24.1842 59.9482 24.7362 59.8256 24.9816 59.5805C26.0242 58.6614 26.3309 58.4776 27.0668 58.4776C27.1282 58.4776 27.1895 58.4776 27.2508 58.4776C27.5575 58.4776 27.9255 58.5389 28.3548 58.5389C29.3361 58.5389 30.6241 58.3551 31.5441 57.4972C32.8934 56.1492 35.224 54.3109 35.9599 53.4531C36.8799 52.2889 37.3706 50.6957 37.1252 49.1026C36.9413 47.632 37.7386 46.3453 38.6585 45.0585C39.8238 43.5266 41.9705 40.7693 41.9705 40.7693C46.2023 43.9555 48.8396 48.7962 48.8396 54.1884C48.8396 63.7472 40.4985 71.4678 30.1948 71.4678C28.6001 71.4678 27.0668 71.284 25.5335 70.9163C30.2561 72.5707 34.2427 73.1222 37.4932 73.1222C44.4237 73.1222 48.1036 70.61 48.1036 70.61C48.1036 70.61 46.8157 72.2644 44.7304 74.1639C44.7917 74.1639 44.7917 74.1639 44.7917 74.1639C56.2608 72.5707 61.842 63.1345 61.842 63.1345C61.842 63.1345 61.4126 66.1982 60.8606 68.2815C76.1323 56.8232 73.5563 42.485 73.495 41.9948C73.6177 42.1786 75.151 44.0168 75.9483 44.9972C78.4015 19.7521 57.7327 11.6026 57.7327 11.6026ZM34.2427 51.9212C33.9973 52.2276 32.9547 53.1467 32.2187 53.8207C31.4827 54.4948 30.6854 55.1688 30.0721 55.7815C29.8268 56.0266 29.3361 56.1492 28.6001 56.1492C28.3548 56.1492 28.1095 56.1492 27.9255 56.1492C27.8028 56.1492 27.6802 56.1492 27.5575 56.1492C27.4348 56.1492 27.3735 56.1492 27.3122 56.1492C27.1282 56.1492 26.9442 56.1492 26.7602 56.1492C27.6802 54.9237 30.3788 52.1051 31.2987 51.4923C32.4027 50.757 32.9547 50.0217 32.28 48.735C31.6054 47.4482 29.8268 47.7546 29.8268 47.7546C29.8268 47.7546 30.8694 47.3256 31.7894 47.3256C30.6241 47.0193 29.1521 47.3256 28.4775 47.9997C27.7415 48.6737 27.8641 51.0634 27.5575 52.5953C27.2508 54.1884 26.2082 54.985 24.6136 56.4555C23.7549 57.2521 23.1416 57.4972 22.6509 57.4972C21.6083 57.3134 20.3817 57.007 19.523 56.7006C18.9097 55.9041 17.9897 53.2693 17.7444 52.1663C17.9284 51.5536 18.6644 50.2668 19.0324 49.5315C19.7684 48.1222 20.1977 47.3256 20.3203 46.5903C20.5657 45.5487 21.363 39.1149 21.6696 36.4188C22.467 37.4605 23.5709 39.1761 23.3256 40.2791C25.1042 37.7668 23.8162 35.3158 23.2029 34.3354C22.6509 33.3551 21.915 31.3943 22.5283 29.3109C23.1416 27.2276 25.3495 21.4678 25.3495 21.4678C25.3495 21.4678 26.0855 22.7546 27.1282 22.5095C28.1708 22.2644 36.5733 9.64182 36.5733 9.64182C36.5733 9.64182 38.8425 14.6051 36.4506 18.2203C33.9973 21.8354 31.6054 22.5095 31.6054 22.5095C31.6054 22.5095 34.9786 23.1222 38.1066 20.8551C39.3945 23.8575 40.6212 26.9825 40.6825 27.4114C40.4985 27.8404 38.0452 33.7227 37.7999 34.0904C37.6772 34.2129 36.8186 34.458 36.2053 34.5805C35.1626 34.8869 34.5493 35.0707 34.304 35.2546C33.8747 35.6222 31.912 41.0144 30.9921 43.6492C29.8881 43.9555 28.7841 44.5683 27.9868 45.7938C28.4161 45.4874 29.7654 45.3036 30.7467 45.181C31.6054 45.1198 34.2427 46.5291 34.9173 49.1639C34.9173 49.2252 34.9173 49.2252 34.9173 49.2864C35.04 50.2668 34.7333 51.1859 34.2427 51.9212ZM28.4775 52.6565C29.0295 51.86 28.9681 50.5119 29.0295 50.083C29.0908 49.6541 29.2134 48.8575 29.7041 48.735C30.1948 48.6124 31.3601 48.7962 31.3601 49.6541C31.3601 50.4506 30.5014 50.6345 29.8881 51.1859C29.4588 51.6149 28.6001 52.534 28.4775 52.6565ZM52.9488 40.9531C53.5622 37.8281 53.6235 35.132 53.4395 32.9261C55.8314 36.1124 57.3034 39.9727 57.7327 43.9555C57.7941 44.4457 58.2847 44.9359 58.7754 45.4261C59.2047 45.7938 59.6953 46.284 59.6953 46.5903C59.6953 47.9997 59.5727 49.409 59.3273 50.8183C59.266 51.0021 58.714 51.3085 58.2847 51.5536C57.6714 51.86 57.1194 52.1663 56.9967 52.6565C55.6474 57.3747 52.7648 61.5413 48.9009 64.4825C54.6048 58.5389 57.3647 48.735 52.9488 40.9531ZM49.0849 65.034C53.0715 61.9703 56.1381 57.681 57.4874 52.8403C57.5487 52.6565 58.1007 52.3502 58.4687 52.1051C59.082 51.7987 59.6953 51.431 59.818 50.9408C60.0633 49.5315 60.186 48.0609 60.186 46.5903C60.186 46.0389 59.634 45.4874 59.082 44.9359C58.7754 44.5683 58.2847 44.1394 58.2847 43.833C57.7941 39.36 56.0154 35.132 53.2555 31.6394C52.0289 24.2864 47.1223 22.0193 46.9997 21.958C47.1223 22.1418 50.3116 26.7374 48.1036 32.1296C45.8344 37.583 40.0078 36.7252 39.5172 36.7864C39.0265 36.7864 37.1252 39.2374 34.7333 43.7717C34.4266 43.6492 33.1387 43.3428 31.6667 43.5879C32.7707 40.5242 34.4266 36.1737 34.7333 35.806C34.856 35.6835 35.7759 35.4384 36.3893 35.2546C37.5546 34.9482 38.1066 34.7644 38.2906 34.5193C38.4132 34.3354 39.0265 32.9261 39.6398 31.4555C40.1918 31.4555 41.6025 31.333 41.7251 31.2717C41.8478 31.1492 43.0131 28.1467 43.0131 27.7791C43.0131 27.4727 40.6212 21.5291 39.7012 19.2619C40.1305 18.7717 40.5598 18.159 40.9891 17.485C53.5622 18.833 63.3753 29.4948 63.3753 42.4237C63.3753 52.3502 57.5487 60.9899 49.0849 65.034Z" stroke="#9EC5FF" stroke-width="3.2795" stroke-linejoin="round" mask="url(#path-4-outside-2_1507_1416)"/>
<path d="M32.7707 31.9457C33.936 30.5977 33.3227 28.0854 31.1761 27.6565C31.7281 26.3697 32.5254 23.7962 32.5254 23.7962C32.5254 23.7962 26.2695 33.6001 25.7175 33.784C25.1656 33.9678 24.6136 31.8232 24.6136 31.8232C23.4483 36.2962 26.5762 36.909 26.9442 35.4996C28.6615 35.0707 31.6054 33.2325 32.7707 31.9457Z" stroke="#9EC5FF" stroke-width="3.2795" stroke-linejoin="round" mask="url(#path-4-outside-2_1507_1416)"/>
</g>
<path d="M19.5232 42.7913L21.4858 28.0242L4.43555 16.1982L20.0138 21.4678L23.6937 15.8305L37.1254 7.49719L66.7486 23.7962L68.2819 48.6737L55.0956 66.9947L44.6692 68.5879L50.0664 58.7227V49.2251L46.1412 41.8109L42.1546 39.1761L36.0214 45.4874V52.1663L31.2375 56.6393L25.1657 57.3746L22.4671 58.9065L18.0512 57.4972L16.2112 50.8795L19.5232 46.2227V42.7913Z" fill="white"/>
<path d="M46.7547 16.0755C43.5042 15.4015 39.9469 15.5853 39.9469 15.5853C39.9469 15.5853 38.7816 20.9774 31.5445 22.3867C31.6058 22.3867 41.1122 25.6343 46.7547 16.0755Z" fill="#94A6C3"/>
<path d="M49.6986 64.9726C53.6239 61.9089 56.5678 57.6809 57.9171 52.9015C57.9784 52.7177 58.5304 52.4113 58.8984 52.1662C59.5117 51.7986 60.125 51.4922 60.2477 51.002C60.493 49.5927 60.6157 48.1221 60.6157 46.6515C60.6157 46.1 60.0637 45.5486 59.5117 44.9971C59.0824 44.6295 58.6531 44.2005 58.6531 43.8942C58.0397 38.3182 55.4638 33.1098 51.3546 29.3108L50.9253 29.7398C54.9118 33.4775 57.4878 38.5633 58.0397 43.9554C58.1011 44.4456 58.5917 44.9358 59.0824 45.426C59.5117 45.7937 60.0024 46.3451 60.0024 46.5902C60.0024 47.9996 59.8797 49.4089 59.6344 50.8182C59.573 51.0633 59.0211 51.3084 58.5917 51.5535C57.9784 51.8599 57.4264 52.1662 57.3038 52.6564C55.8318 57.8648 52.4585 62.3991 47.9813 65.3402C48.7786 63.6246 51.2932 58.0486 52.6425 55.23L52.3972 46.1613L44.6081 38.6246L40.1922 39.2373L35.347 47.0804C35.347 47.0804 37.6163 49.9603 34.427 53.3304C31.2991 56.6393 28.8458 57.3746 28.8458 57.3746L26.5765 56.1491C27.2512 55.2912 28.6005 54.0045 29.6431 53.1466C31.4217 51.676 33.2004 51.5535 33.2004 49.9603C33.2617 46.6515 29.7045 47.5706 29.7045 47.5706L28.4165 48.7961L27.8645 53.3304L25.1659 56.7005L24.8592 56.6393L20.4434 55.6589C20.4434 55.6589 23.142 54.2496 23.5713 52.6564C24.0006 51.1246 22.7126 46.0388 22.6513 45.7324C22.7126 45.7937 23.9393 46.8353 24.4913 48.551C25.4726 45.8549 26.7605 43.2814 27.1285 43.0363C27.4965 42.7912 32.4644 40.1564 32.4644 40.1564L30.8084 44.5069L32.0351 43.8329L34.979 36.6025C34.979 36.6025 37.8616 35.1932 40.0082 35.1932C43.8721 35.1319 49.576 30.4138 47 21.9579C47.736 22.2643 60.493 28.6368 62.701 41.1368C64.3569 50.7569 58.8984 59.7643 49.6986 64.9726Z" fill="#94A6C3"/>
<path d="M35.1013 17.4236C36.512 15.7692 35.96 13.3182 35.96 13.3182L31.8508 19.3844C31.7894 19.3844 33.3227 19.4457 35.1013 17.4236Z" fill="#0A1728"/>
<path d="M21.3017 50.5733L21.7923 48.1223C21.7923 48.1223 19.7684 51.6762 19.5844 52.1664C19.4004 52.7179 19.707 53.6983 20.5043 53.637C21.3017 53.5757 22.283 52.4115 22.283 51.5536C22.283 50.4507 21.3017 50.5733 21.3017 50.5733Z" fill="#0A1728"/>
<path d="M57.7327 11.6026C57.7327 11.6026 60.7993 11.7252 63.9886 12.0928C56.8127 6.45555 50.0049 4.80113 44.4851 4.80113C36.8799 4.80113 31.7281 7.92613 31.4214 8.10996L33.8133 4.31094C33.8133 4.31094 24.2456 3.39182 20.8723 13.5021C20.0137 11.3575 19.2164 8.23251 19.2164 8.23251C19.2164 8.23251 14.2485 12.583 16.5791 19.8134C10.8752 17.7301 2.71811 14.8502 2.41146 14.7889C1.98213 14.7276 1.85947 14.9114 1.85947 14.9114C1.85947 14.9114 1.73681 15.0953 2.1048 15.4016C2.77945 15.9531 15.6591 25.4506 18.4804 27.2889C17.8671 29.4948 17.8671 30.5364 18.4804 31.5781C19.339 32.9874 19.4004 33.7227 19.2777 34.7644C19.155 35.806 18.0511 44.8134 17.8057 45.9163C17.5604 47.0193 14.9845 50.9408 15.1071 52.1051C15.2298 53.2693 16.8244 58.2325 18.2351 58.784C19.2777 59.1516 21.8536 59.9482 23.5709 59.9482C24.1842 59.9482 24.7362 59.8256 24.9816 59.5805C26.0242 58.6614 26.3309 58.4776 27.0668 58.4776C27.1282 58.4776 27.1895 58.4776 27.2508 58.4776C27.5575 58.4776 27.9255 58.5389 28.3548 58.5389C29.3361 58.5389 30.6241 58.3551 31.5441 57.4972C32.8934 56.1492 35.224 54.3109 35.9599 53.4531C36.8799 52.2889 37.3706 50.6957 37.1252 49.1026C36.9413 47.632 37.7386 46.3453 38.6585 45.0585C39.8238 43.5266 41.9705 40.7693 41.9705 40.7693C46.2023 43.9555 48.8396 48.7962 48.8396 54.1884C48.8396 63.7472 40.4985 71.4678 30.1948 71.4678C28.6001 71.4678 27.0668 71.284 25.5335 70.9163C30.2561 72.5707 34.2427 73.1222 37.4932 73.1222C44.4237 73.1222 48.1036 70.61 48.1036 70.61C48.1036 70.61 46.8157 72.2644 44.7304 74.1639C44.7917 74.1639 44.7917 74.1639 44.7917 74.1639C56.2608 72.5707 61.842 63.1345 61.842 63.1345C61.842 63.1345 61.4126 66.1982 60.8606 68.2815C76.1323 56.8232 73.5563 42.485 73.495 41.9948C73.6177 42.1786 75.151 44.0168 75.9483 44.9972C78.4015 19.7521 57.7327 11.6026 57.7327 11.6026ZM34.2427 51.9212C33.9973 52.2276 32.9547 53.1467 32.2187 53.8207C31.4827 54.4948 30.6854 55.1688 30.0721 55.7815C29.8268 56.0266 29.3361 56.1492 28.6001 56.1492C28.3548 56.1492 28.1095 56.1492 27.9255 56.1492C27.8028 56.1492 27.6802 56.1492 27.5575 56.1492C27.4348 56.1492 27.3735 56.1492 27.3122 56.1492C27.1282 56.1492 26.9442 56.1492 26.7602 56.1492C27.6802 54.9237 30.3788 52.1051 31.2987 51.4923C32.4027 50.757 32.9547 50.0217 32.28 48.735C31.6054 47.4482 29.8268 47.7546 29.8268 47.7546C29.8268 47.7546 30.8694 47.3256 31.7894 47.3256C30.6241 47.0193 29.1521 47.3256 28.4775 47.9997C27.7415 48.6737 27.8641 51.0634 27.5575 52.5953C27.2508 54.1884 26.2082 54.985 24.6136 56.4555C23.7549 57.2521 23.1416 57.4972 22.6509 57.4972C21.6083 57.3134 20.3817 57.007 19.523 56.7006C18.9097 55.9041 17.9897 53.2693 17.7444 52.1663C17.9284 51.5536 18.6644 50.2668 19.0324 49.5315C19.7684 48.1222 20.1977 47.3256 20.3203 46.5903C20.5657 45.5487 21.363 39.1149 21.6696 36.4188C22.467 37.4605 23.5709 39.1761 23.3256 40.2791C25.1042 37.7668 23.8162 35.3158 23.2029 34.3354C22.6509 33.3551 21.915 31.3943 22.5283 29.3109C23.1416 27.2276 25.3495 21.4678 25.3495 21.4678C25.3495 21.4678 26.0855 22.7546 27.1282 22.5095C28.1708 22.2644 36.5733 9.64182 36.5733 9.64182C36.5733 9.64182 38.8425 14.6051 36.4506 18.2203C33.9973 21.8354 31.6054 22.5095 31.6054 22.5095C31.6054 22.5095 34.9786 23.1222 38.1066 20.8551C39.3945 23.8575 40.6212 26.9825 40.6825 27.4114C40.4985 27.8404 38.0452 33.7227 37.7999 34.0904C37.6772 34.2129 36.8186 34.458 36.2053 34.5805C35.1626 34.8869 34.5493 35.0707 34.304 35.2546C33.8747 35.6222 31.912 41.0144 30.9921 43.6492C29.8881 43.9555 28.7841 44.5683 27.9868 45.7938C28.4161 45.4874 29.7654 45.3036 30.7467 45.181C31.6054 45.1198 34.2427 46.5291 34.9173 49.1639C34.9173 49.2252 34.9173 49.2252 34.9173 49.2864C35.04 50.2668 34.7333 51.1859 34.2427 51.9212ZM28.4775 52.6565C29.0295 51.86 28.9681 50.5119 29.0295 50.083C29.0908 49.6541 29.2134 48.8575 29.7041 48.735C30.1948 48.6124 31.3601 48.7962 31.3601 49.6541C31.3601 50.4506 30.5014 50.6345 29.8881 51.1859C29.4588 51.6149 28.6001 52.534 28.4775 52.6565ZM52.9488 40.9531C53.5622 37.8281 53.6235 35.132 53.4395 32.9261C55.8314 36.1124 57.3034 39.9727 57.7327 43.9555C57.7941 44.4457 58.2847 44.9359 58.7754 45.4261C59.2047 45.7938 59.6953 46.284 59.6953 46.5903C59.6953 47.9997 59.5727 49.409 59.3273 50.8183C59.266 51.0021 58.714 51.3085 58.2847 51.5536C57.6714 51.86 57.1194 52.1663 56.9967 52.6565C55.6474 57.3747 52.7648 61.5413 48.9009 64.4825C54.6048 58.5389 57.3647 48.735 52.9488 40.9531ZM49.0849 65.034C53.0715 61.9703 56.1381 57.681 57.4874 52.8403C57.5487 52.6565 58.1007 52.3502 58.4687 52.1051C59.082 51.7987 59.6953 51.431 59.818 50.9408C60.0633 49.5315 60.186 48.0609 60.186 46.5903C60.186 46.0389 59.634 45.4874 59.082 44.9359C58.7754 44.5683 58.2847 44.1394 58.2847 43.833C57.7941 39.36 56.0154 35.132 53.2555 31.6394C52.0289 24.2864 47.1223 22.0193 46.9997 21.958C47.1223 22.1418 50.3116 26.7374 48.1036 32.1296C45.8344 37.583 40.0078 36.7252 39.5172 36.7864C39.0265 36.7864 37.1252 39.2374 34.7333 43.7717C34.4266 43.6492 33.1387 43.3428 31.6667 43.5879C32.7707 40.5242 34.4266 36.1737 34.7333 35.806C34.856 35.6835 35.7759 35.4384 36.3893 35.2546C37.5546 34.9482 38.1066 34.7644 38.2906 34.5193C38.4132 34.3354 39.0265 32.9261 39.6398 31.4555C40.1918 31.4555 41.6025 31.333 41.7251 31.2717C41.8478 31.1492 43.0131 28.1467 43.0131 27.7791C43.0131 27.4727 40.6212 21.5291 39.7012 19.2619C40.1305 18.7717 40.5598 18.159 40.9891 17.485C53.5622 18.833 63.3753 29.4948 63.3753 42.4237C63.3753 52.3502 57.5487 60.9899 49.0849 65.034Z" fill="#0A1728"/>
<path d="M32.7707 31.9457C33.936 30.5977 33.3227 28.0854 31.1761 27.6565C31.7281 26.3697 32.5254 23.7962 32.5254 23.7962C32.5254 23.7962 26.2695 33.6001 25.7175 33.784C25.1656 33.9678 24.6136 31.8232 24.6136 31.8232C23.4483 36.2962 26.5762 36.909 26.9442 35.4996C28.6615 35.0707 31.6054 33.2325 32.7707 31.9457Z" fill="#0A1728"/>
<path d="M27.4346 34.3356L30.6238 28.8822C30.6238 28.8822 32.4638 29.8013 31.5438 31.2719C30.3785 32.9876 27.4346 34.3356 27.4346 34.3356Z" fill="#FFD923"/>
<path d="M66.8712 59.5805C65.9512 60.806 64.9086 62.0928 63.6819 63.3183C71.5937 48.1222 64.0499 34.2129 63.7433 33.6614C64.2953 34.2129 64.8472 34.8256 65.3379 35.3771C71.4097 42.1173 72.1457 52.2276 66.8712 59.5805Z" fill="#D82122"/>
<path d="M74.231 40.0339C71.4711 32.6197 67.5458 26.3084 58.8981 20.6099C50.5569 15.0952 41.6025 15.5241 41.1118 15.5854C41.0505 15.5854 40.9892 15.5854 40.9892 15.5854C41.2958 15.4629 41.6025 15.4016 41.9092 15.3403C43.8104 14.7276 46.2637 14.2374 48.717 13.931C55.2181 13.0119 61.7806 15.2178 66.2579 19.9359C66.3192 19.9972 66.3192 19.9972 66.3805 20.0584C71.4711 25.4506 74.1083 32.1908 74.231 40.0339Z" fill="#D82122"/>
<path d="M56.9354 9.70321C47.797 7.98752 41.9092 8.84536 37.6773 10.4385C37.5546 9.9483 37.1253 8.96791 36.7573 8.17134C35.4693 9.70321 34.12 11.5414 33.2614 12.7057C30.9308 14.2988 29.9495 15.8307 29.9495 15.8307C31.2988 11.2351 35.224 7.8037 40.0079 6.94585C41.3572 6.70075 42.8291 6.57821 44.4238 6.57821C48.6556 6.63948 52.8875 7.68115 56.9354 9.70321Z" fill="#D82122"/>
<path d="M23.1417 21.4679C15.9658 21.2228 18.3578 12.8895 18.4804 12.3993C18.4804 12.4606 18.9711 18.9557 23.1417 21.4679Z" fill="#D82122"/>
<path d="M30.1948 6.45557C24.6749 9.76439 25.7789 17.6688 25.7789 17.6688C20.5044 9.64184 29.7655 6.63939 30.1948 6.45557Z" fill="#D82122"/>
<path d="M21.1172 23.6737C21.4852 23.98 21.8532 24.5315 21.4239 25.3281C21.1785 25.757 20.8105 25.6957 20.2585 25.4506C19.5226 25.083 15.1067 22.5094 11.1201 19.8746C15.6587 21.4678 20.2585 23.1835 20.9945 23.5511C20.9945 23.5511 21.0559 23.6124 21.1172 23.6737Z" fill="white"/>
</svg>
