<svg width="200" height="80" viewBox="0 0 200 80" fill="none" xmlns="http://www.w3.org/2000/svg">
<path d="M87.8506 22.4462H95.3272V52.3248H102.804V14.9766H95.3272C91.2151 14.9766 87.8506 18.3379 87.8506 22.4462Z" fill="white"/>
<path d="M110.28 52.3248H117.757V37.3855C117.757 33.2772 114.393 29.9159 110.28 29.9159V52.3248Z" fill="white"/>
<path d="M125.234 29.9159V52.3248H132.71V37.3855H140.187V44.8552C140.187 48.9635 143.552 52.3248 147.664 52.3248V37.3855C147.664 33.2772 144.299 29.9159 140.187 29.9159H125.234Z" fill="white"/>
<path d="M192.523 29.9159H185.047V22.4462C185.047 18.3379 181.682 14.9766 177.57 14.9766V44.8552H162.617V37.3855H170.094V29.9159H162.617C158.505 29.9159 155.14 33.2772 155.14 37.3855V44.8552C155.14 48.9635 158.505 52.3248 162.617 52.3248H185.047V37.3855H192.523V44.8552C192.523 48.9635 195.888 52.3248 200 52.3248V37.3855C200 33.2772 196.636 29.9159 192.523 29.9159Z" fill="white"/>
<path d="M110.28 22.4462H117.757C117.757 18.3379 114.393 14.9766 110.28 14.9766V22.4462Z" fill="white"/>
<mask id="path-2-outside-1_1507_1396" maskUnits="userSpaceOnUse" x="93.959" y="58.6222" width="106" height="7" fill="black">
<rect fill="white" x="93.959" y="58.6222" width="106" height="7"/>
<path fill-rule="evenodd" clip-rule="evenodd" d="M99.1229 59.6222V64.4963H98.4405L95.7597 61.1192V64.4963H94.959V59.6222H95.6414L98.3221 63.0132V59.6222H99.1229ZM114.273 64.4963H111.384V59.6222H114.204V60.4229H112.24V61.6345H113.995V62.4352H112.24V63.6955H114.273V64.4963ZM126.534 60.4229H128.114V64.4963H128.971V60.4229H130.551V59.6222H126.534V60.4229ZM148.779 59.6222H149.601L148.208 64.4963H147.408L146.231 60.973L145.075 64.4963H144.267L142.812 59.6222H143.773L144.755 63.0967L145.841 59.6222H146.69L147.804 63.1037L148.779 59.6222ZM162.571 60.3463C162.098 60.8291 161.861 61.4256 161.861 62.1358C161.861 62.8832 162.1 63.489 162.578 63.9532C163.057 64.4174 163.662 64.6495 164.396 64.6495C165.125 64.6495 165.73 64.4127 166.213 63.9393C166.696 63.4658 166.937 62.8646 166.937 62.1358C166.937 61.3931 166.696 60.7873 166.213 60.3185C165.735 59.8543 165.129 59.6222 164.396 59.6222C163.662 59.6222 163.054 59.8636 162.571 60.3463ZM163.233 63.3613C162.922 63.0364 162.766 62.6279 162.766 62.1358C162.766 61.6345 162.92 61.2237 163.226 60.9034C163.537 60.5831 163.927 60.4229 164.396 60.4229C164.855 60.4229 165.243 60.5831 165.559 60.9034C165.874 61.2283 166.032 61.6391 166.032 62.1358C166.032 62.6279 165.884 63.0364 165.586 63.3613C165.294 63.6863 164.897 63.8487 164.396 63.8487C163.932 63.8487 163.544 63.6863 163.233 63.3613ZM180.054 62.6859V64.5102H179.198V59.6361C179.439 59.6361 179.702 59.6338 179.985 59.6292C180.268 59.6245 180.5 59.6222 180.681 59.6222C181.86 59.6222 182.45 60.1235 182.45 61.1262C182.45 61.4976 182.354 61.8039 182.164 62.0453C181.974 62.2774 181.756 62.4352 181.51 62.5188L183.035 64.5102H181.997L180.653 62.6859H180.054ZM180.639 60.4229C180.616 60.4229 180.579 60.4253 180.528 60.4299C180.477 60.4299 180.405 60.4322 180.312 60.4369H180.054V61.8852H180.611C180.885 61.8852 181.108 61.8179 181.28 61.6832C181.456 61.5486 181.544 61.3653 181.544 61.1332C181.544 60.6597 181.243 60.4229 180.639 60.4229ZM195.294 64.4963H196.151V61.9827L198.142 64.4963H199.228L197.098 61.8921L199.103 59.6222H198.073L196.151 61.9339V59.6222H195.294V64.4963Z"/>
</mask>
<path fill-rule="evenodd" clip-rule="evenodd" d="M99.1229 59.6222V64.4963H98.4405L95.7597 61.1192V64.4963H94.959V59.6222H95.6414L98.3221 63.0132V59.6222H99.1229ZM114.273 64.4963H111.384V59.6222H114.204V60.4229H112.24V61.6345H113.995V62.4352H112.24V63.6955H114.273V64.4963ZM126.534 60.4229H128.114V64.4963H128.971V60.4229H130.551V59.6222H126.534V60.4229ZM148.779 59.6222H149.601L148.208 64.4963H147.408L146.231 60.973L145.075 64.4963H144.267L142.812 59.6222H143.773L144.755 63.0967L145.841 59.6222H146.69L147.804 63.1037L148.779 59.6222ZM162.571 60.3463C162.098 60.8291 161.861 61.4256 161.861 62.1358C161.861 62.8832 162.1 63.489 162.578 63.9532C163.057 64.4174 163.662 64.6495 164.396 64.6495C165.125 64.6495 165.73 64.4127 166.213 63.9393C166.696 63.4658 166.937 62.8646 166.937 62.1358C166.937 61.3931 166.696 60.7873 166.213 60.3185C165.735 59.8543 165.129 59.6222 164.396 59.6222C163.662 59.6222 163.054 59.8636 162.571 60.3463ZM163.233 63.3613C162.922 63.0364 162.766 62.6279 162.766 62.1358C162.766 61.6345 162.92 61.2237 163.226 60.9034C163.537 60.5831 163.927 60.4229 164.396 60.4229C164.855 60.4229 165.243 60.5831 165.559 60.9034C165.874 61.2283 166.032 61.6391 166.032 62.1358C166.032 62.6279 165.884 63.0364 165.586 63.3613C165.294 63.6863 164.897 63.8487 164.396 63.8487C163.932 63.8487 163.544 63.6863 163.233 63.3613ZM180.054 62.6859V64.5102H179.198V59.6361C179.439 59.6361 179.702 59.6338 179.985 59.6292C180.268 59.6245 180.5 59.6222 180.681 59.6222C181.86 59.6222 182.45 60.1235 182.45 61.1262C182.45 61.4976 182.354 61.8039 182.164 62.0453C181.974 62.2774 181.756 62.4352 181.51 62.5188L183.035 64.5102H181.997L180.653 62.6859H180.054ZM180.639 60.4229C180.616 60.4229 180.579 60.4253 180.528 60.4299C180.477 60.4299 180.405 60.4322 180.312 60.4369H180.054V61.8852H180.611C180.885 61.8852 181.108 61.8179 181.28 61.6832C181.456 61.5486 181.544 61.3653 181.544 61.1332C181.544 60.6597 181.243 60.4229 180.639 60.4229ZM195.294 64.4963H196.151V61.9827L198.142 64.4963H199.228L197.098 61.8921L199.103 59.6222H198.073L196.151 61.9339V59.6222H195.294V64.4963Z" fill="#2F7AEA"/>
<path d="M99.1229 64.4963V64.6603H99.2868V64.4963H99.1229ZM99.1229 59.6222H99.2868V59.4582H99.1229V59.6222ZM98.4405 64.4963L98.3121 64.5982L98.3613 64.6603H98.4405V64.4963ZM95.7597 61.1192L95.8882 61.0173L95.5958 60.6489V61.1192H95.7597ZM95.7597 64.4963V64.6603H95.9237V64.4963H95.7597ZM94.959 64.4963H94.795V64.6603H94.959V64.4963ZM94.959 59.6222V59.4582H94.795V59.6222H94.959ZM95.6414 59.6222L95.77 59.5205L95.7208 59.4582H95.6414V59.6222ZM98.3221 63.0132L98.1935 63.1149L98.4861 63.485V63.0132H98.3221ZM98.3221 59.6222V59.4582H98.1581V59.6222H98.3221ZM111.384 64.4963H111.22V64.6603H111.384V64.4963ZM114.273 64.4963V64.6603H114.437V64.4963H114.273ZM111.384 59.6222V59.4582H111.22V59.6222H111.384ZM114.204 59.6222H114.368V59.4582H114.204V59.6222ZM114.204 60.4229V60.5869H114.368V60.4229H114.204ZM112.24 60.4229V60.259H112.076V60.4229H112.24ZM112.24 61.6345H112.076V61.7985H112.24V61.6345ZM113.995 61.6345H114.159V61.4705H113.995V61.6345ZM113.995 62.4352V62.5992H114.159V62.4352H113.995ZM112.24 62.4352V62.2713H112.076V62.4352H112.24ZM112.24 63.6955H112.076V63.8595H112.24V63.6955ZM114.273 63.6955H114.437V63.5316H114.273V63.6955ZM128.114 60.4229H128.278V60.259H128.114V60.4229ZM126.534 60.4229H126.37V60.5869H126.534V60.4229ZM128.114 64.4963H127.95V64.6603H128.114V64.4963ZM128.971 64.4963V64.6603H129.135V64.4963H128.971ZM128.971 60.4229V60.259H128.807V60.4229H128.971ZM130.551 60.4229V60.5869H130.715V60.4229H130.551ZM130.551 59.6222H130.715V59.4582H130.551V59.6222ZM126.534 59.6222V59.4582H126.37V59.6222H126.534ZM149.601 59.6222L149.759 59.6672L149.818 59.4582H149.601V59.6222ZM148.779 59.6222V59.4582H148.655L148.621 59.578L148.779 59.6222ZM148.208 64.4963V64.6603H148.332L148.366 64.5413L148.208 64.4963ZM147.408 64.4963L147.252 64.5482L147.289 64.6603H147.408V64.4963ZM146.231 60.973L146.386 60.9211L146.229 60.4512L146.075 60.9219L146.231 60.973ZM145.075 64.4963V64.6603H145.194L145.231 64.5474L145.075 64.4963ZM144.267 64.4963L144.11 64.5432L144.145 64.6603H144.267V64.4963ZM142.812 59.6222V59.4582H142.592L142.655 59.6691L142.812 59.6222ZM143.773 59.6222L143.931 59.5776L143.897 59.4582H143.773V59.6222ZM144.755 63.0967L144.597 63.1413L144.747 63.6717L144.911 63.1457L144.755 63.0967ZM145.841 59.6222V59.4582H145.72L145.684 59.5733L145.841 59.6222ZM146.69 59.6222L146.847 59.5722L146.81 59.4582H146.69V59.6222ZM147.804 63.1037L147.648 63.1537L147.815 63.6744L147.962 63.1479L147.804 63.1037ZM162.571 60.3463L162.456 60.2304L162.454 60.2315L162.571 60.3463ZM162.578 63.9532L162.693 63.8355L162.693 63.8355L162.578 63.9532ZM166.213 63.9393L166.328 64.0563L166.328 64.0563L166.213 63.9393ZM166.213 60.3185L166.327 60.2009L166.327 60.2008L166.213 60.3185ZM163.233 63.3613L163.351 63.2479L163.351 63.2479L163.233 63.3613ZM163.226 60.9034L163.108 60.7892L163.107 60.79L163.226 60.9034ZM165.559 60.9034L165.676 60.7891L165.675 60.7883L165.559 60.9034ZM165.586 63.3613L165.465 63.2507L165.465 63.2516L165.586 63.3613ZM180.054 64.5102V64.6742H180.218V64.5102H180.054ZM180.054 62.6859V62.5219H179.89V62.6859H180.054ZM179.198 64.5102H179.034V64.6742H179.198V64.5102ZM179.198 59.6361V59.4721H179.034V59.6361H179.198ZM179.985 59.6292L179.987 59.7931L179.987 59.7931L179.985 59.6292ZM182.164 62.0453L182.291 62.1493L182.293 62.1468L182.164 62.0453ZM181.51 62.5188L181.457 62.3635L181.24 62.437L181.379 62.6185L181.51 62.5188ZM183.035 64.5102V64.6742H183.367L183.165 64.4105L183.035 64.5102ZM181.997 64.5102L181.865 64.6075L181.914 64.6742H181.997V64.5102ZM180.653 62.6859L180.785 62.5887L180.736 62.5219H180.653V62.6859ZM180.528 60.4299V60.5939H180.535L180.543 60.5932L180.528 60.4299ZM180.312 60.4369V60.601L180.32 60.6006L180.312 60.4369ZM180.054 60.4369V60.2729H179.89V60.4369H180.054ZM180.054 61.8852H179.89V62.0491H180.054V61.8852ZM181.28 61.6832L181.18 61.5529L181.179 61.5542L181.28 61.6832ZM196.151 64.4963V64.6603H196.315V64.4963H196.151ZM195.294 64.4963H195.13V64.6603H195.294V64.4963ZM196.151 61.9827L196.279 61.8808L195.987 61.5116V61.9827H196.151ZM198.142 64.4963L198.014 64.5981L198.063 64.6603H198.142V64.4963ZM199.228 64.4963V64.6603H199.574L199.355 64.3925L199.228 64.4963ZM197.098 61.8921L196.975 61.7836L196.883 61.8881L196.971 61.996L197.098 61.8921ZM199.103 59.6222L199.226 59.7308L199.467 59.4582H199.103V59.6222ZM198.073 59.6222V59.4582H197.996L197.946 59.5174L198.073 59.6222ZM196.151 61.9339H195.987V62.3877L196.277 62.0387L196.151 61.9339ZM196.151 59.6222H196.315V59.4582H196.151V59.6222ZM195.294 59.6222V59.4582H195.13V59.6222H195.294ZM99.2868 64.4963V59.6222H98.9589V64.4963H99.2868ZM98.4405 64.6603H99.1229V64.3323H98.4405V64.6603ZM95.6313 61.2212L98.3121 64.5982L98.5689 64.3943L95.8882 61.0173L95.6313 61.2212ZM95.9237 64.4963V61.1192H95.5958V64.4963H95.9237ZM94.959 64.6603H95.7597V64.3323H94.959V64.6603ZM94.795 59.6222V64.4963H95.123V59.6222H94.795ZM95.6414 59.4582H94.959V59.7862H95.6414V59.4582ZM98.4507 62.9115L95.77 59.5205L95.5127 59.7239L98.1935 63.1149L98.4507 62.9115ZM98.1581 59.6222V63.0132H98.4861V59.6222H98.1581ZM99.1229 59.4582H98.3221V59.7862H99.1229V59.4582ZM111.384 64.6603H114.273V64.3323H111.384V64.6603ZM111.22 59.6222V64.4963H111.548V59.6222H111.22ZM114.204 59.4582H111.384V59.7862H114.204V59.4582ZM114.368 60.4229V59.6222H114.04V60.4229H114.368ZM112.24 60.5869H114.204V60.259H112.24V60.5869ZM112.404 61.6345V60.4229H112.076V61.6345H112.404ZM113.995 61.4705H112.24V61.7985H113.995V61.4705ZM114.159 62.4352V61.6345H113.831V62.4352H114.159ZM112.24 62.5992H113.995V62.2713H112.24V62.5992ZM112.404 63.6955V62.4352H112.076V63.6955H112.404ZM114.273 63.5316H112.24V63.8595H114.273V63.5316ZM114.437 64.4963V63.6955H114.109V64.4963H114.437ZM128.114 60.259H126.534V60.5869H128.114V60.259ZM128.278 64.4963V60.4229H127.95V64.4963H128.278ZM128.971 64.3323H128.114V64.6603H128.971V64.3323ZM128.807 60.4229V64.4963H129.135V60.4229H128.807ZM130.551 60.259H128.971V60.5869H130.551V60.259ZM130.387 59.6222V60.4229H130.715V59.6222H130.387ZM126.534 59.7862H130.551V59.4582H126.534V59.7862ZM126.698 60.4229V59.6222H126.37V60.4229H126.698ZM149.601 59.4582H148.779V59.7862H149.601V59.4582ZM148.366 64.5413L149.759 59.6672L149.443 59.5771L148.051 64.4512L148.366 64.5413ZM147.408 64.6603H148.208V64.3323H147.408V64.6603ZM146.075 61.025L147.252 64.5482L147.563 64.4443L146.386 60.9211L146.075 61.025ZM145.231 64.5474L146.387 61.0241L146.075 60.9219L144.919 64.4452L145.231 64.5474ZM144.267 64.6603H145.075V64.3323H144.267V64.6603ZM142.655 59.6691L144.11 64.5432L144.424 64.4494L142.969 59.5753L142.655 59.6691ZM143.773 59.4582H142.812V59.7862H143.773V59.4582ZM144.912 63.0521L143.931 59.5776L143.615 59.6668L144.597 63.1413L144.912 63.0521ZM145.684 59.5733L144.598 63.0478L144.911 63.1457L145.997 59.6711L145.684 59.5733ZM146.69 59.4582H145.841V59.7862H146.69V59.4582ZM147.961 63.0537L146.847 59.5722L146.534 59.6722L147.648 63.1537L147.961 63.0537ZM148.621 59.578L147.647 63.0595L147.962 63.1479L148.937 59.6664L148.621 59.578ZM162.025 62.1358C162.025 61.4662 162.247 60.9116 162.689 60.4612L162.454 60.2315C161.949 60.7466 161.697 61.3851 161.697 62.1358H162.025ZM162.693 63.8355C162.25 63.4061 162.025 62.8448 162.025 62.1358H161.697C161.697 62.9216 161.95 63.5719 162.464 64.0708L162.693 63.8355ZM164.396 64.4855C163.7 64.4855 163.137 64.2669 162.693 63.8355L162.464 64.0708C162.976 64.5679 163.624 64.8135 164.396 64.8135V64.4855ZM166.098 63.8222C165.649 64.2631 165.085 64.4855 164.396 64.4855V64.8135C165.164 64.8135 165.812 64.5624 166.328 64.0563L166.098 63.8222ZM166.773 62.1358C166.773 62.8244 166.547 63.3821 166.098 63.8222L166.328 64.0563C166.845 63.5494 167.101 62.9049 167.101 62.1358H166.773ZM166.099 60.4361C166.546 60.8707 166.773 61.4324 166.773 62.1358H167.101C167.101 61.3539 166.845 60.7039 166.327 60.2009L166.099 60.4361ZM164.396 59.7862C165.091 59.7862 165.655 60.0048 166.099 60.4361L166.327 60.2008C165.815 59.7038 165.167 59.4582 164.396 59.4582V59.7862ZM162.687 60.4623C163.137 60.0127 163.702 59.7862 164.396 59.7862V59.4582C163.622 59.4582 162.971 59.7144 162.456 60.2304L162.687 60.4623ZM162.602 62.1358C162.602 62.6658 162.771 63.1163 163.114 63.4747L163.351 63.2479C163.072 62.9565 162.93 62.59 162.93 62.1358H162.602ZM163.107 60.79C162.768 61.1449 162.602 61.5983 162.602 62.1358H162.93C162.93 61.6707 163.071 61.3024 163.344 61.0167L163.107 60.79ZM164.396 60.259C163.885 60.259 163.452 60.4353 163.108 60.7892L163.344 61.0176C163.622 60.7309 163.969 60.5869 164.396 60.5869V60.259ZM165.675 60.7883C165.328 60.436 164.898 60.259 164.396 60.259V60.5869C164.813 60.5869 165.158 60.7302 165.442 61.0185L165.675 60.7883ZM166.196 62.1358C166.196 61.601 166.025 61.1478 165.676 60.7891L165.441 61.0176C165.724 61.3089 165.868 61.6773 165.868 62.1358H166.196ZM165.707 63.472C166.035 63.1132 166.196 62.6636 166.196 62.1358H165.868C165.868 62.5921 165.732 62.9596 165.465 63.2507L165.707 63.472ZM164.396 64.0127C164.936 64.0127 165.38 63.8357 165.708 63.471L165.465 63.2516C165.208 63.5368 164.858 63.6848 164.396 63.6848V64.0127ZM163.114 63.4747C163.458 63.8331 163.888 64.0127 164.396 64.0127V63.6848C163.975 63.6848 163.63 63.5394 163.351 63.2479L163.114 63.4747ZM180.218 64.5102V62.6859H179.89V64.5102H180.218ZM179.198 64.6742H180.054V64.3462H179.198V64.6742ZM179.034 59.6361V64.5102H179.362V59.6361H179.034ZM179.982 59.4652C179.7 59.4698 179.438 59.4721 179.198 59.4721V59.8001C179.44 59.8001 179.704 59.7978 179.987 59.7931L179.982 59.4652ZM180.681 59.4582C180.499 59.4582 180.266 59.4606 179.982 59.4652L179.987 59.7931C180.27 59.7885 180.501 59.7862 180.681 59.7862V59.4582ZM182.614 61.1262C182.614 60.592 182.455 60.1638 182.114 59.8733C181.777 59.5871 181.29 59.4582 180.681 59.4582V59.7862C181.251 59.7862 181.648 59.9079 181.901 60.1231C182.149 60.3339 182.286 60.6577 182.286 61.1262H182.614ZM182.293 62.1468C182.511 61.8709 182.614 61.5265 182.614 61.1262H182.286C182.286 61.4686 182.198 61.737 182.035 61.9438L182.293 62.1468ZM181.562 62.6741C181.842 62.5792 182.084 62.4013 182.291 62.1493L182.037 61.9413C181.863 62.1535 181.67 62.2913 181.457 62.3635L181.562 62.6741ZM183.165 64.4105L181.64 62.4191L181.379 62.6185L182.904 64.6099L183.165 64.4105ZM181.997 64.6742H183.035V64.3462H181.997V64.6742ZM180.521 62.7832L181.865 64.6075L182.129 64.413L180.785 62.5887L180.521 62.7832ZM180.054 62.8499H180.653V62.5219H180.054V62.8499ZM180.543 60.5932C180.593 60.5886 180.624 60.5869 180.639 60.5869V60.259C180.608 60.259 180.565 60.2619 180.513 60.2666L180.543 60.5932ZM180.32 60.6006C180.412 60.596 180.481 60.5939 180.528 60.5939V60.2659C180.473 60.2659 180.398 60.2684 180.304 60.2731L180.32 60.6006ZM180.054 60.6008H180.312V60.2729H180.054V60.6008ZM180.218 61.8852V60.4369H179.89V61.8852H180.218ZM180.611 61.7212H180.054V62.0491H180.611V61.7212ZM181.179 61.5542C181.042 61.6609 180.858 61.7212 180.611 61.7212V62.0491C180.912 62.0491 181.174 61.9748 181.381 61.8123L181.179 61.5542ZM181.38 61.1332C181.38 61.3169 181.314 61.4509 181.18 61.5529L181.379 61.8136C181.598 61.6463 181.708 61.4137 181.708 61.1332H181.38ZM180.639 60.5869C180.924 60.5869 181.107 60.6435 181.217 60.7295C181.319 60.8095 181.38 60.9337 181.38 61.1332H181.708C181.708 60.8591 181.619 60.6282 181.419 60.4715C181.227 60.3207 180.958 60.259 180.639 60.259V60.5869ZM196.151 64.3323H195.294V64.6603H196.151V64.3323ZM195.987 61.9827V64.4963H196.315V61.9827H195.987ZM198.271 64.3945L196.279 61.8808L196.022 62.0845L198.014 64.5981L198.271 64.3945ZM199.228 64.3323H198.142V64.6603H199.228V64.3323ZM196.971 61.996L199.102 64.6001L199.355 64.3925L197.225 61.7883L196.971 61.996ZM198.98 59.5136L196.975 61.7836L197.221 62.0007L199.226 59.7308L198.98 59.5136ZM198.073 59.7862H199.103V59.4582H198.073V59.7862ZM196.277 62.0387L198.199 59.727L197.946 59.5174L196.025 61.8291L196.277 62.0387ZM195.987 59.6222V61.9339H196.315V59.6222H195.987ZM195.294 59.7862H196.151V59.4582H195.294V59.7862ZM195.458 64.4963V59.6222H195.13V64.4963H195.458Z" fill="#2F7AEA" mask="url(#path-2-outside-1_1507_1396)"/>
<g opacity="0.3">
<mask id="path-4-outside-2_1507_1396" maskUnits="userSpaceOnUse" x="-0.160156" y="3.07349" width="78" height="74" fill="black">
<rect fill="white" x="-0.160156" y="3.07349" width="78" height="74"/>
<path d="M35.1013 18.2079C36.512 16.5535 35.96 14.1025 35.96 14.1025L31.8508 20.1687C31.7894 20.1687 33.3227 20.23 35.1013 18.2079Z"/>
<path d="M21.3017 51.3576L21.7923 48.9066C21.7923 48.9066 19.7684 52.4605 19.5844 52.9507C19.4004 53.5022 19.707 54.4826 20.5043 54.4213C21.3017 54.36 22.283 53.1958 22.283 52.338C22.283 51.235 21.3017 51.3576 21.3017 51.3576Z"/>
<path d="M57.7327 12.3869C57.7327 12.3869 60.7993 12.5095 63.9886 12.8771C56.8127 7.23985 50.0049 5.58544 44.4851 5.58544C36.8799 5.58544 31.7281 8.71044 31.4214 8.89426L33.8133 5.09524C33.8133 5.09524 24.2456 4.17612 20.8723 14.2864C20.0137 12.1418 19.2164 9.01681 19.2164 9.01681C19.2164 9.01681 14.2485 13.3673 16.5791 20.5977C10.8752 18.5144 2.71811 15.6345 2.41146 15.5732C1.98213 15.5119 1.85947 15.6957 1.85947 15.6957C1.85947 15.6957 1.73681 15.8796 2.1048 16.1859C2.77945 16.7374 15.6591 26.2349 18.4804 28.0732C17.8671 30.2791 17.8671 31.3207 18.4804 32.3624C19.339 33.7717 19.4004 34.507 19.2777 35.5487C19.155 36.5903 18.0511 45.5977 17.8057 46.7006C17.5604 47.8036 14.9845 51.7251 15.1071 52.8894C15.2298 54.0536 16.8244 59.0168 18.2351 59.5683C19.2777 59.9359 21.8536 60.7325 23.5709 60.7325C24.1842 60.7325 24.7362 60.6099 24.9816 60.3648C26.0242 59.4457 26.3309 59.2619 27.0668 59.2619C27.1282 59.2619 27.1895 59.2619 27.2508 59.2619C27.5575 59.2619 27.9255 59.3232 28.3548 59.3232C29.3361 59.3232 30.6241 59.1394 31.5441 58.2815C32.8934 56.9335 35.224 55.0952 35.9599 54.2374C36.8799 53.0732 37.3706 51.48 37.1252 49.8869C36.9413 48.4163 37.7386 47.1296 38.6585 45.8428C39.8238 44.3109 41.9705 41.5536 41.9705 41.5536C46.2023 44.7398 48.8396 49.5805 48.8396 54.9727C48.8396 64.5315 40.4985 72.2521 30.1948 72.2521C28.6001 72.2521 27.0668 72.0683 25.5335 71.7006C30.2561 73.355 34.2427 73.9065 37.4932 73.9065C44.4237 73.9065 48.1036 71.3943 48.1036 71.3943C48.1036 71.3943 46.8157 73.0487 44.7304 74.9482C44.7917 74.9482 44.7917 74.9482 44.7917 74.9482C56.2608 73.355 61.842 63.9188 61.842 63.9188C61.842 63.9188 61.4126 66.9825 60.8606 69.0658C76.1323 57.6075 73.5563 43.2693 73.495 42.7791C73.6177 42.9629 75.151 44.8011 75.9483 45.7815C78.4015 20.5364 57.7327 12.3869 57.7327 12.3869ZM34.2427 52.7055C33.9973 53.0119 32.9547 53.931 32.2187 54.605C31.4827 55.2791 30.6854 55.9531 30.0721 56.5658C29.8268 56.8109 29.3361 56.9335 28.6001 56.9335C28.3548 56.9335 28.1095 56.9335 27.9255 56.9335C27.8028 56.9335 27.6802 56.9335 27.5575 56.9335C27.4348 56.9335 27.3735 56.9335 27.3122 56.9335C27.1282 56.9335 26.9442 56.9335 26.7602 56.9335C27.6802 55.708 30.3788 52.8894 31.2987 52.2766C32.4027 51.5413 32.9547 50.806 32.28 49.5193C31.6054 48.2325 29.8268 48.5389 29.8268 48.5389C29.8268 48.5389 30.8694 48.1099 31.7894 48.1099C30.6241 47.8036 29.1521 48.1099 28.4775 48.784C27.7415 49.458 27.8641 51.8477 27.5575 53.3796C27.2508 54.9727 26.2082 55.7693 24.6136 57.2398C23.7549 58.0364 23.1416 58.2815 22.6509 58.2815C21.6083 58.0977 20.3817 57.7913 19.523 57.4849C18.9097 56.6884 17.9897 54.0536 17.7444 52.9506C17.9284 52.3379 18.6644 51.0511 19.0324 50.3158C19.7684 48.9065 20.1977 48.1099 20.3203 47.3747C20.5657 46.333 21.363 39.8992 21.6696 37.2031C22.467 38.2448 23.5709 39.9604 23.3256 41.0634C25.1042 38.5511 23.8162 36.1001 23.2029 35.1198C22.6509 34.1394 21.915 32.1786 22.5283 30.0952C23.1416 28.0119 25.3495 22.2521 25.3495 22.2521C25.3495 22.2521 26.0855 23.5389 27.1282 23.2938C28.1708 23.0487 36.5733 10.4261 36.5733 10.4261C36.5733 10.4261 38.8425 15.3894 36.4506 19.0046C33.9973 22.6198 31.6054 23.2938 31.6054 23.2938C31.6054 23.2938 34.9786 23.9065 38.1066 21.6394C39.3945 24.6418 40.6212 27.7668 40.6825 28.1957C40.4985 28.6247 38.0452 34.507 37.7999 34.8747C37.6772 34.9972 36.8186 35.2423 36.2053 35.3649C35.1626 35.6712 34.5493 35.855 34.304 36.0389C33.8747 36.4065 31.912 41.7987 30.9921 44.4335C29.8881 44.7398 28.7841 45.3526 27.9868 46.5781C28.4161 46.2717 29.7654 46.0879 30.7467 45.9653C31.6054 45.9041 34.2427 47.3134 34.9173 49.9482C34.9173 50.0095 34.9173 50.0095 34.9173 50.0707C35.04 51.0511 34.7333 51.9702 34.2427 52.7055ZM28.4775 53.4408C29.0295 52.6443 28.9681 51.2962 29.0295 50.8673C29.0908 50.4384 29.2134 49.6418 29.7041 49.5193C30.1948 49.3967 31.3601 49.5805 31.3601 50.4384C31.3601 51.2349 30.5014 51.4188 29.8881 51.9702C29.4588 52.3992 28.6001 53.3183 28.4775 53.4408ZM52.9488 41.7374C53.5622 38.6124 53.6235 35.9163 53.4395 33.7104C55.8314 36.8967 57.3034 40.757 57.7327 44.7398C57.7941 45.23 58.2847 45.7202 58.7754 46.2104C59.2047 46.5781 59.6953 47.0683 59.6953 47.3747C59.6953 48.784 59.5727 50.1933 59.3273 51.6026C59.266 51.7864 58.714 52.0928 58.2847 52.3379C57.6714 52.6443 57.1194 52.9506 56.9967 53.4408C55.6474 58.159 52.7648 62.3256 48.9009 65.2668C54.6048 59.3232 57.3647 49.5193 52.9488 41.7374ZM49.0849 65.8183C53.0715 62.7546 56.1381 58.4653 57.4874 53.6246C57.5487 53.4408 58.1007 53.1345 58.4687 52.8894C59.082 52.583 59.6953 52.2153 59.818 51.7251C60.0633 50.3158 60.186 48.8452 60.186 47.3747C60.186 46.8232 59.634 46.2717 59.082 45.7202C58.7754 45.3526 58.2847 44.9237 58.2847 44.6173C57.7941 40.1443 56.0154 35.9163 53.2555 32.4237C52.0289 25.0707 47.1223 22.8036 46.9997 22.7423C47.1223 22.9261 50.3116 27.5217 48.1036 32.9139C45.8344 38.3673 40.0078 37.5095 39.5172 37.5707C39.0265 37.5707 37.1252 40.0217 34.7333 44.556C34.4266 44.4335 33.1387 44.1271 31.6667 44.3722C32.7707 41.3085 34.4266 36.958 34.7333 36.5903C34.856 36.4678 35.7759 36.2227 36.3893 36.0389C37.5546 35.7325 38.1066 35.5487 38.2906 35.3036C38.4132 35.1198 39.0265 33.7104 39.6398 32.2398C40.1918 32.2398 41.6025 32.1173 41.7251 32.056C41.8478 31.9335 43.0131 28.931 43.0131 28.5634C43.0131 28.257 40.6212 22.3134 39.7012 20.0462C40.1305 19.556 40.5598 18.9433 40.9891 18.2693C53.5622 19.6173 63.3753 30.2791 63.3753 43.208C63.3753 53.1345 57.5487 61.7742 49.0849 65.8183Z"/>
<path d="M32.7707 32.73C33.936 31.382 33.3227 28.8697 31.1761 28.4408C31.7281 27.154 32.5254 24.5805 32.5254 24.5805C32.5254 24.5805 26.2695 34.3844 25.7175 34.5683C25.1656 34.7521 24.6136 32.6075 24.6136 32.6075C23.4483 37.0805 26.5762 37.6933 26.9442 36.2839C28.6615 35.855 31.6054 34.0168 32.7707 32.73Z"/>
</mask>
<path d="M35.1013 18.2079C36.512 16.5535 35.96 14.1025 35.96 14.1025L31.8508 20.1687C31.7894 20.1687 33.3227 20.23 35.1013 18.2079Z" fill="#0A1728"/>
<path d="M21.3017 51.3576L21.7923 48.9066C21.7923 48.9066 19.7684 52.4605 19.5844 52.9507C19.4004 53.5022 19.707 54.4826 20.5043 54.4213C21.3017 54.36 22.283 53.1958 22.283 52.338C22.283 51.235 21.3017 51.3576 21.3017 51.3576Z" fill="#0A1728"/>
<path d="M57.7327 12.3869C57.7327 12.3869 60.7993 12.5095 63.9886 12.8771C56.8127 7.23985 50.0049 5.58544 44.4851 5.58544C36.8799 5.58544 31.7281 8.71044 31.4214 8.89426L33.8133 5.09524C33.8133 5.09524 24.2456 4.17612 20.8723 14.2864C20.0137 12.1418 19.2164 9.01681 19.2164 9.01681C19.2164 9.01681 14.2485 13.3673 16.5791 20.5977C10.8752 18.5144 2.71811 15.6345 2.41146 15.5732C1.98213 15.5119 1.85947 15.6957 1.85947 15.6957C1.85947 15.6957 1.73681 15.8796 2.1048 16.1859C2.77945 16.7374 15.6591 26.2349 18.4804 28.0732C17.8671 30.2791 17.8671 31.3207 18.4804 32.3624C19.339 33.7717 19.4004 34.507 19.2777 35.5487C19.155 36.5903 18.0511 45.5977 17.8057 46.7006C17.5604 47.8036 14.9845 51.7251 15.1071 52.8894C15.2298 54.0536 16.8244 59.0168 18.2351 59.5683C19.2777 59.9359 21.8536 60.7325 23.5709 60.7325C24.1842 60.7325 24.7362 60.6099 24.9816 60.3648C26.0242 59.4457 26.3309 59.2619 27.0668 59.2619C27.1282 59.2619 27.1895 59.2619 27.2508 59.2619C27.5575 59.2619 27.9255 59.3232 28.3548 59.3232C29.3361 59.3232 30.6241 59.1394 31.5441 58.2815C32.8934 56.9335 35.224 55.0952 35.9599 54.2374C36.8799 53.0732 37.3706 51.48 37.1252 49.8869C36.9413 48.4163 37.7386 47.1296 38.6585 45.8428C39.8238 44.3109 41.9705 41.5536 41.9705 41.5536C46.2023 44.7398 48.8396 49.5805 48.8396 54.9727C48.8396 64.5315 40.4985 72.2521 30.1948 72.2521C28.6001 72.2521 27.0668 72.0683 25.5335 71.7006C30.2561 73.355 34.2427 73.9065 37.4932 73.9065C44.4237 73.9065 48.1036 71.3943 48.1036 71.3943C48.1036 71.3943 46.8157 73.0487 44.7304 74.9482C44.7917 74.9482 44.7917 74.9482 44.7917 74.9482C56.2608 73.355 61.842 63.9188 61.842 63.9188C61.842 63.9188 61.4126 66.9825 60.8606 69.0658C76.1323 57.6075 73.5563 43.2693 73.495 42.7791C73.6177 42.9629 75.151 44.8011 75.9483 45.7815C78.4015 20.5364 57.7327 12.3869 57.7327 12.3869ZM34.2427 52.7055C33.9973 53.0119 32.9547 53.931 32.2187 54.605C31.4827 55.2791 30.6854 55.9531 30.0721 56.5658C29.8268 56.8109 29.3361 56.9335 28.6001 56.9335C28.3548 56.9335 28.1095 56.9335 27.9255 56.9335C27.8028 56.9335 27.6802 56.9335 27.5575 56.9335C27.4348 56.9335 27.3735 56.9335 27.3122 56.9335C27.1282 56.9335 26.9442 56.9335 26.7602 56.9335C27.6802 55.708 30.3788 52.8894 31.2987 52.2766C32.4027 51.5413 32.9547 50.806 32.28 49.5193C31.6054 48.2325 29.8268 48.5389 29.8268 48.5389C29.8268 48.5389 30.8694 48.1099 31.7894 48.1099C30.6241 47.8036 29.1521 48.1099 28.4775 48.784C27.7415 49.458 27.8641 51.8477 27.5575 53.3796C27.2508 54.9727 26.2082 55.7693 24.6136 57.2398C23.7549 58.0364 23.1416 58.2815 22.6509 58.2815C21.6083 58.0977 20.3817 57.7913 19.523 57.4849C18.9097 56.6884 17.9897 54.0536 17.7444 52.9506C17.9284 52.3379 18.6644 51.0511 19.0324 50.3158C19.7684 48.9065 20.1977 48.1099 20.3203 47.3747C20.5657 46.333 21.363 39.8992 21.6696 37.2031C22.467 38.2448 23.5709 39.9604 23.3256 41.0634C25.1042 38.5511 23.8162 36.1001 23.2029 35.1198C22.6509 34.1394 21.915 32.1786 22.5283 30.0952C23.1416 28.0119 25.3495 22.2521 25.3495 22.2521C25.3495 22.2521 26.0855 23.5389 27.1282 23.2938C28.1708 23.0487 36.5733 10.4261 36.5733 10.4261C36.5733 10.4261 38.8425 15.3894 36.4506 19.0046C33.9973 22.6198 31.6054 23.2938 31.6054 23.2938C31.6054 23.2938 34.9786 23.9065 38.1066 21.6394C39.3945 24.6418 40.6212 27.7668 40.6825 28.1957C40.4985 28.6247 38.0452 34.507 37.7999 34.8747C37.6772 34.9972 36.8186 35.2423 36.2053 35.3649C35.1626 35.6712 34.5493 35.855 34.304 36.0389C33.8747 36.4065 31.912 41.7987 30.9921 44.4335C29.8881 44.7398 28.7841 45.3526 27.9868 46.5781C28.4161 46.2717 29.7654 46.0879 30.7467 45.9653C31.6054 45.9041 34.2427 47.3134 34.9173 49.9482C34.9173 50.0095 34.9173 50.0095 34.9173 50.0707C35.04 51.0511 34.7333 51.9702 34.2427 52.7055ZM28.4775 53.4408C29.0295 52.6443 28.9681 51.2962 29.0295 50.8673C29.0908 50.4384 29.2134 49.6418 29.7041 49.5193C30.1948 49.3967 31.3601 49.5805 31.3601 50.4384C31.3601 51.2349 30.5014 51.4188 29.8881 51.9702C29.4588 52.3992 28.6001 53.3183 28.4775 53.4408ZM52.9488 41.7374C53.5622 38.6124 53.6235 35.9163 53.4395 33.7104C55.8314 36.8967 57.3034 40.757 57.7327 44.7398C57.7941 45.23 58.2847 45.7202 58.7754 46.2104C59.2047 46.5781 59.6953 47.0683 59.6953 47.3747C59.6953 48.784 59.5727 50.1933 59.3273 51.6026C59.266 51.7864 58.714 52.0928 58.2847 52.3379C57.6714 52.6443 57.1194 52.9506 56.9967 53.4408C55.6474 58.159 52.7648 62.3256 48.9009 65.2668C54.6048 59.3232 57.3647 49.5193 52.9488 41.7374ZM49.0849 65.8183C53.0715 62.7546 56.1381 58.4653 57.4874 53.6246C57.5487 53.4408 58.1007 53.1345 58.4687 52.8894C59.082 52.583 59.6953 52.2153 59.818 51.7251C60.0633 50.3158 60.186 48.8452 60.186 47.3747C60.186 46.8232 59.634 46.2717 59.082 45.7202C58.7754 45.3526 58.2847 44.9237 58.2847 44.6173C57.7941 40.1443 56.0154 35.9163 53.2555 32.4237C52.0289 25.0707 47.1223 22.8036 46.9997 22.7423C47.1223 22.9261 50.3116 27.5217 48.1036 32.9139C45.8344 38.3673 40.0078 37.5095 39.5172 37.5707C39.0265 37.5707 37.1252 40.0217 34.7333 44.556C34.4266 44.4335 33.1387 44.1271 31.6667 44.3722C32.7707 41.3085 34.4266 36.958 34.7333 36.5903C34.856 36.4678 35.7759 36.2227 36.3893 36.0389C37.5546 35.7325 38.1066 35.5487 38.2906 35.3036C38.4132 35.1198 39.0265 33.7104 39.6398 32.2398C40.1918 32.2398 41.6025 32.1173 41.7251 32.056C41.8478 31.9335 43.0131 28.931 43.0131 28.5634C43.0131 28.257 40.6212 22.3134 39.7012 20.0462C40.1305 19.556 40.5598 18.9433 40.9891 18.2693C53.5622 19.6173 63.3753 30.2791 63.3753 43.208C63.3753 53.1345 57.5487 61.7742 49.0849 65.8183Z" fill="#0A1728"/>
<path d="M32.7707 32.73C33.936 31.382 33.3227 28.8697 31.1761 28.4408C31.7281 27.154 32.5254 24.5805 32.5254 24.5805C32.5254 24.5805 26.2695 34.3844 25.7175 34.5683C25.1656 34.7521 24.6136 32.6075 24.6136 32.6075C23.4483 37.0805 26.5762 37.6933 26.9442 36.2839C28.6615 35.855 31.6054 34.0168 32.7707 32.73Z" fill="#0A1728"/>
<path d="M35.1013 18.2079C36.512 16.5535 35.96 14.1025 35.96 14.1025L31.8508 20.1687C31.7894 20.1687 33.3227 20.23 35.1013 18.2079Z" stroke="#9EC5FF" stroke-width="3.2795" stroke-linejoin="round" mask="url(#path-4-outside-2_1507_1396)"/>
<path d="M21.3017 51.3576L21.7923 48.9066C21.7923 48.9066 19.7684 52.4605 19.5844 52.9507C19.4004 53.5022 19.707 54.4826 20.5043 54.4213C21.3017 54.36 22.283 53.1958 22.283 52.338C22.283 51.235 21.3017 51.3576 21.3017 51.3576Z" stroke="#9EC5FF" stroke-width="3.2795" stroke-linejoin="round" mask="url(#path-4-outside-2_1507_1396)"/>
<path d="M57.7327 12.3869C57.7327 12.3869 60.7993 12.5095 63.9886 12.8771C56.8127 7.23985 50.0049 5.58544 44.4851 5.58544C36.8799 5.58544 31.7281 8.71044 31.4214 8.89426L33.8133 5.09524C33.8133 5.09524 24.2456 4.17612 20.8723 14.2864C20.0137 12.1418 19.2164 9.01681 19.2164 9.01681C19.2164 9.01681 14.2485 13.3673 16.5791 20.5977C10.8752 18.5144 2.71811 15.6345 2.41146 15.5732C1.98213 15.5119 1.85947 15.6957 1.85947 15.6957C1.85947 15.6957 1.73681 15.8796 2.1048 16.1859C2.77945 16.7374 15.6591 26.2349 18.4804 28.0732C17.8671 30.2791 17.8671 31.3207 18.4804 32.3624C19.339 33.7717 19.4004 34.507 19.2777 35.5487C19.155 36.5903 18.0511 45.5977 17.8057 46.7006C17.5604 47.8036 14.9845 51.7251 15.1071 52.8894C15.2298 54.0536 16.8244 59.0168 18.2351 59.5683C19.2777 59.9359 21.8536 60.7325 23.5709 60.7325C24.1842 60.7325 24.7362 60.6099 24.9816 60.3648C26.0242 59.4457 26.3309 59.2619 27.0668 59.2619C27.1282 59.2619 27.1895 59.2619 27.2508 59.2619C27.5575 59.2619 27.9255 59.3232 28.3548 59.3232C29.3361 59.3232 30.6241 59.1394 31.5441 58.2815C32.8934 56.9335 35.224 55.0952 35.9599 54.2374C36.8799 53.0732 37.3706 51.48 37.1252 49.8869C36.9413 48.4163 37.7386 47.1296 38.6585 45.8428C39.8238 44.3109 41.9705 41.5536 41.9705 41.5536C46.2023 44.7398 48.8396 49.5805 48.8396 54.9727C48.8396 64.5315 40.4985 72.2521 30.1948 72.2521C28.6001 72.2521 27.0668 72.0683 25.5335 71.7006C30.2561 73.355 34.2427 73.9065 37.4932 73.9065C44.4237 73.9065 48.1036 71.3943 48.1036 71.3943C48.1036 71.3943 46.8157 73.0487 44.7304 74.9482C44.7917 74.9482 44.7917 74.9482 44.7917 74.9482C56.2608 73.355 61.842 63.9188 61.842 63.9188C61.842 63.9188 61.4126 66.9825 60.8606 69.0658C76.1323 57.6075 73.5563 43.2693 73.495 42.7791C73.6177 42.9629 75.151 44.8011 75.9483 45.7815C78.4015 20.5364 57.7327 12.3869 57.7327 12.3869ZM34.2427 52.7055C33.9973 53.0119 32.9547 53.931 32.2187 54.605C31.4827 55.2791 30.6854 55.9531 30.0721 56.5658C29.8268 56.8109 29.3361 56.9335 28.6001 56.9335C28.3548 56.9335 28.1095 56.9335 27.9255 56.9335C27.8028 56.9335 27.6802 56.9335 27.5575 56.9335C27.4348 56.9335 27.3735 56.9335 27.3122 56.9335C27.1282 56.9335 26.9442 56.9335 26.7602 56.9335C27.6802 55.708 30.3788 52.8894 31.2987 52.2766C32.4027 51.5413 32.9547 50.806 32.28 49.5193C31.6054 48.2325 29.8268 48.5389 29.8268 48.5389C29.8268 48.5389 30.8694 48.1099 31.7894 48.1099C30.6241 47.8036 29.1521 48.1099 28.4775 48.784C27.7415 49.458 27.8641 51.8477 27.5575 53.3796C27.2508 54.9727 26.2082 55.7693 24.6136 57.2398C23.7549 58.0364 23.1416 58.2815 22.6509 58.2815C21.6083 58.0977 20.3817 57.7913 19.523 57.4849C18.9097 56.6884 17.9897 54.0536 17.7444 52.9506C17.9284 52.3379 18.6644 51.0511 19.0324 50.3158C19.7684 48.9065 20.1977 48.1099 20.3203 47.3747C20.5657 46.333 21.363 39.8992 21.6696 37.2031C22.467 38.2448 23.5709 39.9604 23.3256 41.0634C25.1042 38.5511 23.8162 36.1001 23.2029 35.1198C22.6509 34.1394 21.915 32.1786 22.5283 30.0952C23.1416 28.0119 25.3495 22.2521 25.3495 22.2521C25.3495 22.2521 26.0855 23.5389 27.1282 23.2938C28.1708 23.0487 36.5733 10.4261 36.5733 10.4261C36.5733 10.4261 38.8425 15.3894 36.4506 19.0046C33.9973 22.6198 31.6054 23.2938 31.6054 23.2938C31.6054 23.2938 34.9786 23.9065 38.1066 21.6394C39.3945 24.6418 40.6212 27.7668 40.6825 28.1957C40.4985 28.6247 38.0452 34.507 37.7999 34.8747C37.6772 34.9972 36.8186 35.2423 36.2053 35.3649C35.1626 35.6712 34.5493 35.855 34.304 36.0389C33.8747 36.4065 31.912 41.7987 30.9921 44.4335C29.8881 44.7398 28.7841 45.3526 27.9868 46.5781C28.4161 46.2717 29.7654 46.0879 30.7467 45.9653C31.6054 45.9041 34.2427 47.3134 34.9173 49.9482C34.9173 50.0095 34.9173 50.0095 34.9173 50.0707C35.04 51.0511 34.7333 51.9702 34.2427 52.7055ZM28.4775 53.4408C29.0295 52.6443 28.9681 51.2962 29.0295 50.8673C29.0908 50.4384 29.2134 49.6418 29.7041 49.5193C30.1948 49.3967 31.3601 49.5805 31.3601 50.4384C31.3601 51.2349 30.5014 51.4188 29.8881 51.9702C29.4588 52.3992 28.6001 53.3183 28.4775 53.4408ZM52.9488 41.7374C53.5622 38.6124 53.6235 35.9163 53.4395 33.7104C55.8314 36.8967 57.3034 40.757 57.7327 44.7398C57.7941 45.23 58.2847 45.7202 58.7754 46.2104C59.2047 46.5781 59.6953 47.0683 59.6953 47.3747C59.6953 48.784 59.5727 50.1933 59.3273 51.6026C59.266 51.7864 58.714 52.0928 58.2847 52.3379C57.6714 52.6443 57.1194 52.9506 56.9967 53.4408C55.6474 58.159 52.7648 62.3256 48.9009 65.2668C54.6048 59.3232 57.3647 49.5193 52.9488 41.7374ZM49.0849 65.8183C53.0715 62.7546 56.1381 58.4653 57.4874 53.6246C57.5487 53.4408 58.1007 53.1345 58.4687 52.8894C59.082 52.583 59.6953 52.2153 59.818 51.7251C60.0633 50.3158 60.186 48.8452 60.186 47.3747C60.186 46.8232 59.634 46.2717 59.082 45.7202C58.7754 45.3526 58.2847 44.9237 58.2847 44.6173C57.7941 40.1443 56.0154 35.9163 53.2555 32.4237C52.0289 25.0707 47.1223 22.8036 46.9997 22.7423C47.1223 22.9261 50.3116 27.5217 48.1036 32.9139C45.8344 38.3673 40.0078 37.5095 39.5172 37.5707C39.0265 37.5707 37.1252 40.0217 34.7333 44.556C34.4266 44.4335 33.1387 44.1271 31.6667 44.3722C32.7707 41.3085 34.4266 36.958 34.7333 36.5903C34.856 36.4678 35.7759 36.2227 36.3893 36.0389C37.5546 35.7325 38.1066 35.5487 38.2906 35.3036C38.4132 35.1198 39.0265 33.7104 39.6398 32.2398C40.1918 32.2398 41.6025 32.1173 41.7251 32.056C41.8478 31.9335 43.0131 28.931 43.0131 28.5634C43.0131 28.257 40.6212 22.3134 39.7012 20.0462C40.1305 19.556 40.5598 18.9433 40.9891 18.2693C53.5622 19.6173 63.3753 30.2791 63.3753 43.208C63.3753 53.1345 57.5487 61.7742 49.0849 65.8183Z" stroke="#9EC5FF" stroke-width="3.2795" stroke-linejoin="round" mask="url(#path-4-outside-2_1507_1396)"/>
<path d="M32.7707 32.73C33.936 31.382 33.3227 28.8697 31.1761 28.4408C31.7281 27.154 32.5254 24.5805 32.5254 24.5805C32.5254 24.5805 26.2695 34.3844 25.7175 34.5683C25.1656 34.7521 24.6136 32.6075 24.6136 32.6075C23.4483 37.0805 26.5762 37.6933 26.9442 36.2839C28.6615 35.855 31.6054 34.0168 32.7707 32.73Z" stroke="#9EC5FF" stroke-width="3.2795" stroke-linejoin="round" mask="url(#path-4-outside-2_1507_1396)"/>
</g>
<path d="M19.5232 43.5756L21.4858 28.8085L4.43555 16.9825L20.0138 22.2521L23.6937 16.6148L37.1254 8.28149L66.7486 24.5805L68.2819 49.458L55.0956 67.779L44.6692 69.3722L50.0664 59.507V50.0094L46.1412 42.5952L42.1546 39.9604L36.0214 46.2717V52.9506L31.2375 57.4236L25.1657 58.1589L22.4671 59.6908L18.0512 58.2815L16.2112 51.6638L19.5232 47.007V43.5756Z" fill="white"/>
<path d="M46.7547 16.8598C43.5042 16.1858 39.9469 16.3696 39.9469 16.3696C39.9469 16.3696 38.7816 21.7617 31.5445 23.171C31.6058 23.171 41.1122 26.4186 46.7547 16.8598Z" fill="#94A6C3"/>
<path d="M49.6986 65.7569C53.6239 62.6932 56.5678 58.4652 57.9171 53.6858C57.9784 53.502 58.5304 53.1956 58.8984 52.9505C59.5117 52.5829 60.125 52.2765 60.2477 51.7863C60.493 50.377 60.6157 48.9064 60.6157 47.4358C60.6157 46.8843 60.0637 46.3329 59.5117 45.7814C59.0824 45.4138 58.6531 44.9848 58.6531 44.6785C58.0397 39.1025 55.4638 33.8942 51.3546 30.0951L50.9253 30.5241C54.9118 34.2618 57.4878 39.3476 58.0397 44.7397C58.1011 45.2299 58.5917 45.7201 59.0824 46.2103C59.5117 46.578 60.0024 47.1294 60.0024 47.3745C60.0024 48.7839 59.8797 50.1932 59.6344 51.6025C59.573 51.8476 59.0211 52.0927 58.5917 52.3378C57.9784 52.6442 57.4264 52.9505 57.3038 53.4407C55.8318 58.6491 52.4585 63.1834 47.9813 66.1245C48.7786 64.4089 51.2932 58.8329 52.6425 56.0143L52.3972 46.9456L44.6081 39.4089L40.1922 40.0216L35.347 47.8647C35.347 47.8647 37.6163 50.7446 34.427 54.1147C31.2991 57.4236 28.8458 58.1589 28.8458 58.1589L26.5765 56.9334C27.2512 56.0755 28.6005 54.7888 29.6431 53.9309C31.4217 52.4603 33.2004 52.3378 33.2004 50.7446C33.2617 47.4358 29.7045 48.3549 29.7045 48.3549L28.4165 49.5804L27.8645 54.1147L25.1659 57.4848L24.8592 57.4236L20.4434 56.4432C20.4434 56.4432 23.142 55.0339 23.5713 53.4407C24.0006 51.9089 22.7126 46.8231 22.6513 46.5167C22.7126 46.578 23.9393 47.6196 24.4913 49.3353C25.4726 46.6392 26.7605 44.0657 27.1285 43.8206C27.4965 43.5755 32.4644 40.9407 32.4644 40.9407L30.8084 45.2912L32.0351 44.6172L34.979 37.3868C34.979 37.3868 37.8616 35.9775 40.0082 35.9775C43.8721 35.9162 49.576 31.1981 47 22.7422C47.736 23.0486 60.493 29.4211 62.701 41.9211C64.3569 51.5412 58.8984 60.5486 49.6986 65.7569Z" fill="#94A6C3"/>
<path d="M35.1013 18.2079C36.512 16.5535 35.96 14.1025 35.96 14.1025L31.8508 20.1687C31.7894 20.1687 33.3227 20.23 35.1013 18.2079Z" fill="#0A1728"/>
<path d="M21.3017 51.3576L21.7923 48.9066C21.7923 48.9066 19.7684 52.4605 19.5844 52.9507C19.4004 53.5022 19.707 54.4826 20.5043 54.4213C21.3017 54.36 22.283 53.1958 22.283 52.338C22.283 51.235 21.3017 51.3576 21.3017 51.3576Z" fill="#0A1728"/>
<path d="M57.7327 12.3869C57.7327 12.3869 60.7993 12.5095 63.9886 12.8771C56.8127 7.23985 50.0049 5.58544 44.4851 5.58544C36.8799 5.58544 31.7281 8.71044 31.4214 8.89426L33.8133 5.09524C33.8133 5.09524 24.2456 4.17612 20.8723 14.2864C20.0137 12.1418 19.2164 9.01681 19.2164 9.01681C19.2164 9.01681 14.2485 13.3673 16.5791 20.5977C10.8752 18.5144 2.71811 15.6345 2.41146 15.5732C1.98213 15.5119 1.85947 15.6957 1.85947 15.6957C1.85947 15.6957 1.73681 15.8796 2.1048 16.1859C2.77945 16.7374 15.6591 26.2349 18.4804 28.0732C17.8671 30.2791 17.8671 31.3207 18.4804 32.3624C19.339 33.7717 19.4004 34.507 19.2777 35.5487C19.155 36.5903 18.0511 45.5977 17.8057 46.7006C17.5604 47.8036 14.9845 51.7251 15.1071 52.8894C15.2298 54.0536 16.8244 59.0168 18.2351 59.5683C19.2777 59.9359 21.8536 60.7325 23.5709 60.7325C24.1842 60.7325 24.7362 60.6099 24.9816 60.3648C26.0242 59.4457 26.3309 59.2619 27.0668 59.2619C27.1282 59.2619 27.1895 59.2619 27.2508 59.2619C27.5575 59.2619 27.9255 59.3232 28.3548 59.3232C29.3361 59.3232 30.6241 59.1394 31.5441 58.2815C32.8934 56.9335 35.224 55.0952 35.9599 54.2374C36.8799 53.0732 37.3706 51.48 37.1252 49.8869C36.9413 48.4163 37.7386 47.1296 38.6585 45.8428C39.8238 44.3109 41.9705 41.5536 41.9705 41.5536C46.2023 44.7398 48.8396 49.5805 48.8396 54.9727C48.8396 64.5315 40.4985 72.2521 30.1948 72.2521C28.6001 72.2521 27.0668 72.0683 25.5335 71.7006C30.2561 73.355 34.2427 73.9065 37.4932 73.9065C44.4237 73.9065 48.1036 71.3943 48.1036 71.3943C48.1036 71.3943 46.8157 73.0487 44.7304 74.9482C44.7917 74.9482 44.7917 74.9482 44.7917 74.9482C56.2608 73.355 61.842 63.9188 61.842 63.9188C61.842 63.9188 61.4126 66.9825 60.8606 69.0658C76.1323 57.6075 73.5563 43.2693 73.495 42.7791C73.6177 42.9629 75.151 44.8011 75.9483 45.7815C78.4015 20.5364 57.7327 12.3869 57.7327 12.3869ZM34.2427 52.7055C33.9973 53.0119 32.9547 53.931 32.2187 54.605C31.4827 55.2791 30.6854 55.9531 30.0721 56.5658C29.8268 56.8109 29.3361 56.9335 28.6001 56.9335C28.3548 56.9335 28.1095 56.9335 27.9255 56.9335C27.8028 56.9335 27.6802 56.9335 27.5575 56.9335C27.4348 56.9335 27.3735 56.9335 27.3122 56.9335C27.1282 56.9335 26.9442 56.9335 26.7602 56.9335C27.6802 55.708 30.3788 52.8894 31.2987 52.2766C32.4027 51.5413 32.9547 50.806 32.28 49.5193C31.6054 48.2325 29.8268 48.5389 29.8268 48.5389C29.8268 48.5389 30.8694 48.1099 31.7894 48.1099C30.6241 47.8036 29.1521 48.1099 28.4775 48.784C27.7415 49.458 27.8641 51.8477 27.5575 53.3796C27.2508 54.9727 26.2082 55.7693 24.6136 57.2398C23.7549 58.0364 23.1416 58.2815 22.6509 58.2815C21.6083 58.0977 20.3817 57.7913 19.523 57.4849C18.9097 56.6884 17.9897 54.0536 17.7444 52.9506C17.9284 52.3379 18.6644 51.0511 19.0324 50.3158C19.7684 48.9065 20.1977 48.1099 20.3203 47.3747C20.5657 46.333 21.363 39.8992 21.6696 37.2031C22.467 38.2448 23.5709 39.9604 23.3256 41.0634C25.1042 38.5511 23.8162 36.1001 23.2029 35.1198C22.6509 34.1394 21.915 32.1786 22.5283 30.0952C23.1416 28.0119 25.3495 22.2521 25.3495 22.2521C25.3495 22.2521 26.0855 23.5389 27.1282 23.2938C28.1708 23.0487 36.5733 10.4261 36.5733 10.4261C36.5733 10.4261 38.8425 15.3894 36.4506 19.0046C33.9973 22.6198 31.6054 23.2938 31.6054 23.2938C31.6054 23.2938 34.9786 23.9065 38.1066 21.6394C39.3945 24.6418 40.6212 27.7668 40.6825 28.1957C40.4985 28.6247 38.0452 34.507 37.7999 34.8747C37.6772 34.9972 36.8186 35.2423 36.2053 35.3649C35.1626 35.6712 34.5493 35.855 34.304 36.0389C33.8747 36.4065 31.912 41.7987 30.9921 44.4335C29.8881 44.7398 28.7841 45.3526 27.9868 46.5781C28.4161 46.2717 29.7654 46.0879 30.7467 45.9653C31.6054 45.9041 34.2427 47.3134 34.9173 49.9482C34.9173 50.0095 34.9173 50.0095 34.9173 50.0707C35.04 51.0511 34.7333 51.9702 34.2427 52.7055ZM28.4775 53.4408C29.0295 52.6443 28.9681 51.2962 29.0295 50.8673C29.0908 50.4384 29.2134 49.6418 29.7041 49.5193C30.1948 49.3967 31.3601 49.5805 31.3601 50.4384C31.3601 51.2349 30.5014 51.4188 29.8881 51.9702C29.4588 52.3992 28.6001 53.3183 28.4775 53.4408ZM52.9488 41.7374C53.5622 38.6124 53.6235 35.9163 53.4395 33.7104C55.8314 36.8967 57.3034 40.757 57.7327 44.7398C57.7941 45.23 58.2847 45.7202 58.7754 46.2104C59.2047 46.5781 59.6953 47.0683 59.6953 47.3747C59.6953 48.784 59.5727 50.1933 59.3273 51.6026C59.266 51.7864 58.714 52.0928 58.2847 52.3379C57.6714 52.6443 57.1194 52.9506 56.9967 53.4408C55.6474 58.159 52.7648 62.3256 48.9009 65.2668C54.6048 59.3232 57.3647 49.5193 52.9488 41.7374ZM49.0849 65.8183C53.0715 62.7546 56.1381 58.4653 57.4874 53.6246C57.5487 53.4408 58.1007 53.1345 58.4687 52.8894C59.082 52.583 59.6953 52.2153 59.818 51.7251C60.0633 50.3158 60.186 48.8452 60.186 47.3747C60.186 46.8232 59.634 46.2717 59.082 45.7202C58.7754 45.3526 58.2847 44.9237 58.2847 44.6173C57.7941 40.1443 56.0154 35.9163 53.2555 32.4237C52.0289 25.0707 47.1223 22.8036 46.9997 22.7423C47.1223 22.9261 50.3116 27.5217 48.1036 32.9139C45.8344 38.3673 40.0078 37.5095 39.5172 37.5707C39.0265 37.5707 37.1252 40.0217 34.7333 44.556C34.4266 44.4335 33.1387 44.1271 31.6667 44.3722C32.7707 41.3085 34.4266 36.958 34.7333 36.5903C34.856 36.4678 35.7759 36.2227 36.3893 36.0389C37.5546 35.7325 38.1066 35.5487 38.2906 35.3036C38.4132 35.1198 39.0265 33.7104 39.6398 32.2398C40.1918 32.2398 41.6025 32.1173 41.7251 32.056C41.8478 31.9335 43.0131 28.931 43.0131 28.5634C43.0131 28.257 40.6212 22.3134 39.7012 20.0462C40.1305 19.556 40.5598 18.9433 40.9891 18.2693C53.5622 19.6173 63.3753 30.2791 63.3753 43.208C63.3753 53.1345 57.5487 61.7742 49.0849 65.8183Z" fill="#0A1728"/>
<path d="M32.7707 32.73C33.936 31.382 33.3227 28.8697 31.1761 28.4408C31.7281 27.154 32.5254 24.5805 32.5254 24.5805C32.5254 24.5805 26.2695 34.3844 25.7175 34.5683C25.1656 34.7521 24.6136 32.6075 24.6136 32.6075C23.4483 37.0805 26.5762 37.6933 26.9442 36.2839C28.6615 35.855 31.6054 34.0168 32.7707 32.73Z" fill="#0A1728"/>
<path d="M27.4346 35.1199L30.6238 29.6665C30.6238 29.6665 32.4638 30.5856 31.5438 32.0562C30.3785 33.7719 27.4346 35.1199 27.4346 35.1199Z" fill="#FFD923"/>
<path d="M66.8712 60.3648C65.9512 61.5903 64.9086 62.8771 63.6819 64.1026C71.5937 48.9065 64.0499 34.9972 63.7433 34.4457C64.2953 34.9972 64.8472 35.6099 65.3379 36.1614C71.4097 42.9016 72.1457 53.0119 66.8712 60.3648Z" fill="#D82122"/>
<path d="M74.231 40.8182C71.4711 33.404 67.5458 27.0927 58.8981 21.3942C50.5569 15.8795 41.6025 16.3084 41.1118 16.3697C41.0505 16.3697 40.9892 16.3697 40.9892 16.3697C41.2958 16.2472 41.6025 16.1859 41.9092 16.1246C43.8104 15.5119 46.2637 15.0217 48.717 14.7153C55.2181 13.7962 61.7806 16.0021 66.2579 20.7202C66.3192 20.7815 66.3192 20.7815 66.3805 20.8427C71.4711 26.2349 74.1083 32.9751 74.231 40.8182Z" fill="#D82122"/>
<path d="M56.9354 10.4875C47.797 8.77182 41.9092 9.62966 37.6773 11.2228C37.5546 10.7326 37.1253 9.75221 36.7573 8.95564C35.4693 10.4875 34.12 12.3257 33.2614 13.49C30.9308 15.0831 29.9495 16.615 29.9495 16.615C31.2988 12.0194 35.224 8.588 40.0079 7.73015C41.3572 7.48506 42.8291 7.36251 44.4238 7.36251C48.6556 7.42378 52.8875 8.46545 56.9354 10.4875Z" fill="#D82122"/>
<path d="M23.1417 22.2522C15.9658 22.0071 18.3578 13.6738 18.4804 13.1836C18.4804 13.2449 18.9711 19.74 23.1417 22.2522Z" fill="#D82122"/>
<path d="M30.1948 7.23987C24.6749 10.5487 25.7789 18.4531 25.7789 18.4531C20.5044 10.4261 29.7655 7.42369 30.1948 7.23987Z" fill="#D82122"/>
<path d="M21.1172 24.458C21.4852 24.7643 21.8532 25.3158 21.4239 26.1124C21.1785 26.5413 20.8105 26.48 20.2585 26.2349C19.5226 25.8673 15.1067 23.2937 11.1201 20.6589C15.6587 22.2521 20.2585 23.9678 20.9945 24.3354C20.9945 24.3354 21.0559 24.3967 21.1172 24.458Z" fill="white"/>
</svg>
